# MagicaVoxel @ Ephtracy

# group
o b18

# material
mtllib Table-0-b18.mtl
usemtl palette

# normals
vn -1 0 0
vn 1 0 0
vn 0 -1 0
vn 0 1 0
vn 0 0 -1
vn 0 0 1

# texcoords
vt 0.138672 0.5
vt 0.705078 0.5

# verts
v -1.6 1.1 -0.2
v -1.6 1.2 -0.2
v -1.6 0.9 1
v -1.6 1 1
v -1.6 0.9 1.1
v -1.6 1 1.1
v -1.6 1.1 1.1
v -1.6 1.2 1.1
v -1.5 0 -0.2
v -1.5 0.2 -0.2
v -1.5 0.4 -0.2
v -1.5 0.7 -0.2
v -1.5 0.8 -0.2
v -1.5 0.9 -0.2
v -1.5 1 -0.2
v -1.5 1.1 -0.2
v -1.5 0 0
v -1.5 0.2 0
v -1.5 0.4 0
v -1.5 0.7 0
v -1.5 0 0.9
v -1.5 0.2 0.9
v -1.5 0.4 0.9
v -1.5 0.7 0.9
v -1.5 0.9 1
v -1.5 1 1
v -1.5 0 1.1
v -1.5 0.2 1.1
v -1.5 0.4 1.1
v -1.5 0.7 1.1
v -1.5 0.8 1.1
v -1.5 0.9 1.1
v -1.5 1 1.1
v -1.5 1.1 1.1
v -1.4 0.2 -0.2
v -1.4 0.4 -0.2
v -1.4 0.7 -0.2
v -1.4 0.8 -0.2
v -1.4 0.2 0
v -1.4 0.4 0
v -1.4 0.7 0
v -1.4 0.8 0
v -1.4 0.2 0.9
v -1.4 0.4 0.9
v -1.4 0.7 0.9
v -1.4 0.8 0.9
v -1.4 0.2 1.1
v -1.4 0.4 1.1
v -1.4 0.7 1.1
v -1.4 0.8 1.1
v 1.1 0.6 -0.2
v 1.1 0.7 -0.2
v 1.1 0.6 0
v 1.1 0.7 0
v 1.1 0.6 0.9
v 1.1 0.7 0.9
v 1.1 0.6 1.1
v 1.1 0.7 1.1
v 1.2 0.1 -0.2
v 1.2 0.6 -0.2
v 1.2 0.1 0
v 1.2 0.6 0
v 1.2 0.1 0.9
v 1.2 0.6 0.9
v 1.2 0.1 1.1
v 1.2 0.6 1.1
v 1.3 0 -0.2
v 1.3 0.1 -0.2
v 1.3 0 0
v 1.3 0.1 0
v 1.3 0 0.9
v 1.3 0.1 0.9
v 1.3 0 1.1
v 1.3 0.1 1.1
v 1.5 0.9 -0.2
v 1.5 1 -0.2
v 1.5 0.9 1.1
v 1.5 1 1.1
v -1.5 0.9 1
v -1.5 1 1
v -1.5 0.9 1.1
v -1.5 1 1.1
v -1.3 0 -0.2
v -1.3 0.1 -0.2
v -1.3 0 0
v -1.3 0.1 0
v -1.3 0 0.9
v -1.3 0.1 0.9
v -1.3 0 1.1
v -1.3 0.1 1.1
v -1.2 0.1 -0.2
v -1.2 0.6 -0.2
v -1.2 0.1 0
v -1.2 0.6 0
v -1.2 0.1 0.9
v -1.2 0.6 0.9
v -1.2 0.1 1.1
v -1.2 0.6 1.1
v -1.1 0.6 -0.2
v -1.1 0.7 -0.2
v -1.1 0.6 0
v -1.1 0.7 0
v -1.1 0.6 0.9
v -1.1 0.7 0.9
v -1.1 0.6 1.1
v -1.1 0.7 1.1
v 1.4 0.2 -0.2
v 1.4 0.4 -0.2
v 1.4 0.7 -0.2
v 1.4 0.8 -0.2
v 1.4 0.2 0
v 1.4 0.4 0
v 1.4 0.7 0
v 1.4 0.8 0
v 1.4 0.2 0.9
v 1.4 0.4 0.9
v 1.4 0.7 0.9
v 1.4 0.8 0.9
v 1.4 0.2 1.1
v 1.4 0.4 1.1
v 1.4 0.7 1.1
v 1.4 0.8 1.1
v 1.5 0 -0.2
v 1.5 0.2 -0.2
v 1.5 0.4 -0.2
v 1.5 0.7 -0.2
v 1.5 0.8 -0.2
v 1.5 0.9 -0.2
v 1.5 1 -0.2
v 1.5 1.1 -0.2
v 1.5 0 0
v 1.5 0.2 0
v 1.5 0.4 0
v 1.5 0.7 0
v 1.5 0 0.9
v 1.5 0.2 0.9
v 1.5 0.4 0.9
v 1.5 0.7 0.9
v 1.5 0 1.1
v 1.5 0.2 1.1
v 1.5 0.4 1.1
v 1.5 0.7 1.1
v 1.5 0.8 1.1
v 1.5 0.9 1.1
v 1.5 1 1.1
v 1.5 1.1 1.1
v 1.6 0.9 -0.2
v 1.6 1 -0.2
v 1.6 1.1 -0.2
v 1.6 1.2 -0.2
v 1.6 0.9 1.1
v 1.6 1 1.1
v 1.6 1.1 1.1
v 1.6 1.2 1.1
v -1.5 0 -0.2
v -1.5 0 0
v -1.5 0 0.9
v -1.5 0 1.1
v -1.3 0 -0.2
v -1.3 0 0
v -1.3 0 0.9
v -1.3 0 1.1
v 1.3 0 -0.2
v 1.3 0 0
v 1.3 0 0.9
v 1.3 0 1.1
v 1.5 0 -0.2
v 1.5 0 0
v 1.5 0 0.9
v 1.5 0 1.1
v -1.3 0.1 -0.2
v -1.3 0.1 0
v -1.3 0.1 0.9
v -1.3 0.1 1.1
v -1.2 0.1 -0.2
v -1.2 0.1 0
v -1.2 0.1 0.9
v -1.2 0.1 1.1
v 1.2 0.1 -0.2
v 1.2 0.1 0
v 1.2 0.1 0.9
v 1.2 0.1 1.1
v 1.3 0.1 -0.2
v 1.3 0.1 0
v 1.3 0.1 0.9
v 1.3 0.1 1.1
v -1.5 0.4 -0.2
v -1.5 0.4 0
v -1.5 0.4 0.9
v -1.5 0.4 1.1
v -1.4 0.4 -0.2
v -1.4 0.4 0
v -1.4 0.4 0.9
v -1.4 0.4 1.1
v 1.4 0.4 -0.2
v 1.4 0.4 0
v 1.4 0.4 0.9
v 1.4 0.4 1.1
v 1.5 0.4 -0.2
v 1.5 0.4 0
v 1.5 0.4 0.9
v 1.5 0.4 1.1
v -1.2 0.6 -0.2
v -1.2 0.6 0
v -1.2 0.6 0.9
v -1.2 0.6 1.1
v -1.1 0.6 -0.2
v -1.1 0.6 0
v -1.1 0.6 0.9
v -1.1 0.6 1.1
v 1.1 0.6 -0.2
v 1.1 0.6 0
v 1.1 0.6 0.9
v 1.1 0.6 1.1
v 1.2 0.6 -0.2
v 1.2 0.6 0
v 1.2 0.6 0.9
v 1.2 0.6 1.1
v -1.1 0.7 -0.2
v -1.1 0.7 0
v -1.1 0.7 0.9
v -1.1 0.7 1.1
v 1.1 0.7 -0.2
v 1.1 0.7 0
v 1.1 0.7 0.9
v 1.1 0.7 1.1
v -1.5 0.8 -0.2
v -1.5 0.8 1.1
v -1.4 0.8 -0.2
v -1.4 0.8 0
v -1.4 0.8 0.9
v -1.4 0.8 1.1
v 1.4 0.8 -0.2
v 1.4 0.8 0
v 1.4 0.8 0.9
v 1.4 0.8 1.1
v 1.5 0.8 -0.2
v 1.5 0.8 1.1
v -1.6 0.9 1
v -1.6 0.9 1.1
v -1.5 0.9 1
v -1.5 0.9 1.1
v 1.5 0.9 -0.2
v 1.5 0.9 1.1
v 1.6 0.9 -0.2
v 1.6 0.9 1.1
v -1.5 1 -0.2
v -1.5 1 1
v -1.5 1 1.1
v 1.5 1 -0.2
v 1.5 1 1.1
v -1.6 1.1 -0.2
v -1.6 1.1 1.1
v -1.5 1.1 -0.2
v -1.5 1.1 1.1
v 1.5 1.1 -0.2
v 1.5 1.1 1.1
v 1.6 1.1 -0.2
v 1.6 1.1 1.1
v -1.5 0.2 -0.2
v -1.5 0.2 0
v -1.5 0.2 0.9
v -1.5 0.2 1.1
v -1.4 0.2 -0.2
v -1.4 0.2 0
v -1.4 0.2 0.9
v -1.4 0.2 1.1
v 1.4 0.2 -0.2
v 1.4 0.2 0
v 1.4 0.2 0.9
v 1.4 0.2 1.1
v 1.5 0.2 -0.2
v 1.5 0.2 0
v 1.5 0.2 0.9
v 1.5 0.2 1.1
v -1.5 0.7 -0.2
v -1.5 0.7 0
v -1.5 0.7 0.9
v -1.5 0.7 1.1
v -1.4 0.7 -0.2
v -1.4 0.7 0
v -1.4 0.7 0.9
v -1.4 0.7 1.1
v 1.4 0.7 -0.2
v 1.4 0.7 0
v 1.4 0.7 0.9
v 1.4 0.7 1.1
v 1.5 0.7 -0.2
v 1.5 0.7 0
v 1.5 0.7 0.9
v 1.5 0.7 1.1
v -1.5 0.9 -0.2
v -1.5 0.9 1
v -1.5 0.9 1.1
v 1.5 0.9 -0.2
v 1.5 0.9 1.1
v -1.6 1 1
v -1.6 1 1.1
v -1.5 1 1
v -1.5 1 1.1
v 1.5 1 -0.2
v 1.5 1 1.1
v 1.6 1 -0.2
v 1.6 1 1.1
v -1.6 1.2 -0.2
v -1.6 1.2 1.1
v 1.6 1.2 -0.2
v 1.6 1.2 1.1
v -1.5 0 -0.2
v -1.3 0 -0.2
v 1.3 0 -0.2
v 1.5 0 -0.2
v -1.3 0.1 -0.2
v -1.2 0.1 -0.2
v 1.2 0.1 -0.2
v 1.3 0.1 -0.2
v -1.5 0.2 -0.2
v -1.4 0.2 -0.2
v 1.4 0.2 -0.2
v 1.5 0.2 -0.2
v -1.5 0.4 -0.2
v -1.4 0.4 -0.2
v 1.4 0.4 -0.2
v 1.5 0.4 -0.2
v -1.2 0.6 -0.2
v -1.1 0.6 -0.2
v 1.1 0.6 -0.2
v 1.2 0.6 -0.2
v -1.5 0.7 -0.2
v -1.4 0.7 -0.2
v -1.1 0.7 -0.2
v 1.1 0.7 -0.2
v 1.4 0.7 -0.2
v 1.5 0.7 -0.2
v -1.5 0.8 -0.2
v -1.4 0.8 -0.2
v 1.4 0.8 -0.2
v 1.5 0.8 -0.2
v -1.5 0.9 -0.2
v 1.5 0.9 -0.2
v 1.6 0.9 -0.2
v -1.5 1 -0.2
v 1.5 1 -0.2
v 1.6 1 -0.2
v -1.6 1.1 -0.2
v -1.5 1.1 -0.2
v 1.5 1.1 -0.2
v 1.6 1.1 -0.2
v -1.6 1.2 -0.2
v 1.6 1.2 -0.2
v -1.5 0 0.9
v -1.3 0 0.9
v 1.3 0 0.9
v 1.5 0 0.9
v -1.3 0.1 0.9
v -1.2 0.1 0.9
v 1.2 0.1 0.9
v 1.3 0.1 0.9
v -1.5 0.2 0.9
v -1.4 0.2 0.9
v 1.4 0.2 0.9
v 1.5 0.2 0.9
v -1.5 0.4 0.9
v -1.4 0.4 0.9
v 1.4 0.4 0.9
v 1.5 0.4 0.9
v -1.2 0.6 0.9
v -1.1 0.6 0.9
v 1.1 0.6 0.9
v 1.2 0.6 0.9
v -1.5 0.7 0.9
v -1.4 0.7 0.9
v -1.1 0.7 0.9
v 1.1 0.7 0.9
v 1.4 0.7 0.9
v 1.5 0.7 0.9
v -1.4 0.8 0.9
v 1.4 0.8 0.9
v -1.6 0.9 1
v -1.5 0.9 1
v -1.6 1 1
v -1.5 1 1
v -1.5 0 0
v -1.3 0 0
v 1.3 0 0
v 1.5 0 0
v -1.3 0.1 0
v -1.2 0.1 0
v 1.2 0.1 0
v 1.3 0.1 0
v -1.5 0.2 0
v -1.4 0.2 0
v 1.4 0.2 0
v 1.5 0.2 0
v -1.5 0.4 0
v -1.4 0.4 0
v 1.4 0.4 0
v 1.5 0.4 0
v -1.2 0.6 0
v -1.1 0.6 0
v 1.1 0.6 0
v 1.2 0.6 0
v -1.5 0.7 0
v -1.4 0.7 0
v -1.1 0.7 0
v 1.1 0.7 0
v 1.4 0.7 0
v 1.5 0.7 0
v -1.4 0.8 0
v 1.4 0.8 0
v -1.5 0 1.1
v -1.3 0 1.1
v 1.3 0 1.1
v 1.5 0 1.1
v -1.3 0.1 1.1
v -1.2 0.1 1.1
v 1.2 0.1 1.1
v 1.3 0.1 1.1
v -1.5 0.2 1.1
v -1.4 0.2 1.1
v 1.4 0.2 1.1
v 1.5 0.2 1.1
v -1.5 0.4 1.1
v -1.4 0.4 1.1
v 1.4 0.4 1.1
v 1.5 0.4 1.1
v -1.2 0.6 1.1
v -1.1 0.6 1.1
v 1.1 0.6 1.1
v 1.2 0.6 1.1
v -1.5 0.7 1.1
v -1.4 0.7 1.1
v -1.1 0.7 1.1
v 1.1 0.7 1.1
v 1.4 0.7 1.1
v 1.5 0.7 1.1
v -1.5 0.8 1.1
v -1.4 0.8 1.1
v 1.4 0.8 1.1
v 1.5 0.8 1.1
v -1.6 0.9 1.1
v -1.5 0.9 1.1
v 1.5 0.9 1.1
v 1.6 0.9 1.1
v -1.6 1 1.1
v -1.5 1 1.1
v 1.5 1 1.1
v 1.6 1 1.1
v -1.6 1.1 1.1
v -1.5 1.1 1.1
v 1.5 1.1 1.1
v 1.6 1.1 1.1
v -1.6 1.2 1.1
v 1.6 1.2 1.1

# faces
f 5/1/1 4/1/1 3/1/1
f 6/1/1 4/1/1 5/1/1
f 7/1/1 2/1/1 1/1/1
f 8/1/1 2/1/1 7/1/1
f 17/2/1 10/2/1 9/2/1
f 18/2/1 10/2/1 17/2/1
f 19/2/1 12/2/1 11/2/1
f 20/2/1 12/2/1 19/2/1
f 25/1/1 14/1/1 13/1/1
f 26/1/1 16/1/1 15/1/1
f 27/2/1 22/2/1 21/2/1
f 28/2/1 22/2/1 27/2/1
f 29/2/1 24/2/1 23/2/1
f 30/2/1 24/2/1 29/2/1
f 31/1/1 25/1/1 13/1/1
f 32/1/1 25/1/1 31/1/1
f 33/1/1 16/1/1 26/1/1
f 34/1/1 16/1/1 33/1/1
f 39/2/1 36/2/1 35/2/1
f 40/2/1 36/2/1 39/2/1
f 41/2/1 38/2/1 37/2/1
f 42/2/1 38/2/1 41/2/1
f 47/2/1 44/2/1 43/2/1
f 48/2/1 44/2/1 47/2/1
f 49/2/1 46/2/1 45/2/1
f 50/2/1 46/2/1 49/2/1
f 53/2/1 52/2/1 51/2/1
f 54/2/1 52/2/1 53/2/1
f 57/2/1 56/2/1 55/2/1
f 58/2/1 56/2/1 57/2/1
f 61/2/1 60/2/1 59/2/1
f 62/2/1 60/2/1 61/2/1
f 65/2/1 64/2/1 63/2/1
f 66/2/1 64/2/1 65/2/1
f 69/2/1 68/2/1 67/2/1
f 70/2/1 68/2/1 69/2/1
f 73/2/1 72/2/1 71/2/1
f 74/2/1 72/2/1 73/2/1
f 77/1/1 76/1/1 75/1/1
f 78/1/1 76/1/1 77/1/1
f 79/1/2 80/1/2 81/1/2
f 81/1/2 80/1/2 82/1/2
f 83/2/2 84/2/2 85/2/2
f 85/2/2 84/2/2 86/2/2
f 87/2/2 88/2/2 89/2/2
f 89/2/2 88/2/2 90/2/2
f 91/2/2 92/2/2 93/2/2
f 93/2/2 92/2/2 94/2/2
f 95/2/2 96/2/2 97/2/2
f 97/2/2 96/2/2 98/2/2
f 99/2/2 100/2/2 101/2/2
f 101/2/2 100/2/2 102/2/2
f 103/2/2 104/2/2 105/2/2
f 105/2/2 104/2/2 106/2/2
f 107/2/2 108/2/2 111/2/2
f 111/2/2 108/2/2 112/2/2
f 109/2/2 110/2/2 113/2/2
f 113/2/2 110/2/2 114/2/2
f 115/2/2 116/2/2 119/2/2
f 119/2/2 116/2/2 120/2/2
f 117/2/2 118/2/2 121/2/2
f 121/2/2 118/2/2 122/2/2
f 123/2/2 124/2/2 131/2/2
f 131/2/2 124/2/2 132/2/2
f 125/2/2 126/2/2 133/2/2
f 133/2/2 126/2/2 134/2/2
f 135/2/2 136/2/2 139/2/2
f 139/2/2 136/2/2 140/2/2
f 137/2/2 138/2/2 141/2/2
f 141/2/2 138/2/2 142/2/2
f 127/1/2 128/1/2 143/1/2
f 143/1/2 128/1/2 144/1/2
f 129/1/2 130/1/2 145/1/2
f 145/1/2 130/1/2 146/1/2
f 147/1/2 148/1/2 151/1/2
f 151/1/2 148/1/2 152/1/2
f 149/1/2 150/1/2 153/1/2
f 153/1/2 150/1/2 154/1/2
f 159/2/3 156/2/3 155/2/3
f 160/2/3 156/2/3 159/2/3
f 161/2/3 158/2/3 157/2/3
f 162/2/3 158/2/3 161/2/3
f 167/2/3 164/2/3 163/2/3
f 168/2/3 164/2/3 167/2/3
f 169/2/3 166/2/3 165/2/3
f 170/2/3 166/2/3 169/2/3
f 175/2/3 172/2/3 171/2/3
f 176/2/3 172/2/3 175/2/3
f 177/2/3 174/2/3 173/2/3
f 178/2/3 174/2/3 177/2/3
f 183/2/3 180/2/3 179/2/3
f 184/2/3 180/2/3 183/2/3
f 185/2/3 182/2/3 181/2/3
f 186/2/3 182/2/3 185/2/3
f 191/2/3 188/2/3 187/2/3
f 192/2/3 188/2/3 191/2/3
f 193/2/3 190/2/3 189/2/3
f 194/2/3 190/2/3 193/2/3
f 199/2/3 196/2/3 195/2/3
f 200/2/3 196/2/3 199/2/3
f 201/2/3 198/2/3 197/2/3
f 202/2/3 198/2/3 201/2/3
f 207/2/3 204/2/3 203/2/3
f 208/2/3 204/2/3 207/2/3
f 209/2/3 206/2/3 205/2/3
f 210/2/3 206/2/3 209/2/3
f 215/2/3 212/2/3 211/2/3
f 216/2/3 212/2/3 215/2/3
f 217/2/3 214/2/3 213/2/3
f 218/2/3 214/2/3 217/2/3
f 223/2/3 220/2/3 219/2/3
f 224/2/3 220/2/3 223/2/3
f 225/2/3 222/2/3 221/2/3
f 226/2/3 222/2/3 225/2/3
f 229/1/3 228/1/3 227/1/3
f 230/1/3 228/1/3 229/1/3
f 231/1/3 228/1/3 230/1/3
f 232/1/3 228/1/3 231/1/3
f 234/1/3 231/1/3 230/1/3
f 235/1/3 231/1/3 234/1/3
f 237/1/3 234/1/3 233/1/3
f 237/1/3 236/1/3 235/1/3
f 237/1/3 235/1/3 234/1/3
f 238/1/3 236/1/3 237/1/3
f 241/1/3 240/1/3 239/1/3
f 242/1/3 240/1/3 241/1/3
f 245/1/3 244/1/3 243/1/3
f 246/1/3 244/1/3 245/1/3
f 250/1/3 248/1/3 247/1/3
f 250/1/3 249/1/3 248/1/3
f 251/1/3 249/1/3 250/1/3
f 254/1/3 253/1/3 252/1/3
f 255/1/3 253/1/3 254/1/3
f 258/1/3 257/1/3 256/1/3
f 259/1/3 257/1/3 258/1/3
f 260/2/4 261/2/4 264/2/4
f 264/2/4 261/2/4 265/2/4
f 262/2/4 263/2/4 266/2/4
f 266/2/4 263/2/4 267/2/4
f 268/2/4 269/2/4 272/2/4
f 272/2/4 269/2/4 273/2/4
f 270/2/4 271/2/4 274/2/4
f 274/2/4 271/2/4 275/2/4
f 276/2/4 277/2/4 280/2/4
f 280/2/4 277/2/4 281/2/4
f 278/2/4 279/2/4 282/2/4
f 282/2/4 279/2/4 283/2/4
f 284/2/4 285/2/4 288/2/4
f 288/2/4 285/2/4 289/2/4
f 286/2/4 287/2/4 290/2/4
f 290/2/4 287/2/4 291/2/4
f 292/1/4 293/1/4 295/1/4
f 293/1/4 294/1/4 295/1/4
f 295/1/4 294/1/4 296/1/4
f 297/1/4 298/1/4 299/1/4
f 299/1/4 298/1/4 300/1/4
f 301/1/4 302/1/4 303/1/4
f 303/1/4 302/1/4 304/1/4
f 305/1/4 306/1/4 307/1/4
f 307/1/4 306/1/4 308/1/4
f 313/2/5 310/2/5 309/2/5
f 316/2/5 312/2/5 311/2/5
f 317/2/5 314/2/5 313/2/5
f 317/2/5 313/2/5 309/2/5
f 318/2/5 314/2/5 317/2/5
f 319/2/5 316/2/5 315/2/5
f 319/2/5 312/2/5 316/2/5
f 320/2/5 312/2/5 319/2/5
f 322/2/5 314/2/5 318/2/5
f 323/2/5 319/2/5 315/2/5
f 325/2/5 322/2/5 321/2/5
f 325/2/5 314/2/5 322/2/5
f 328/2/5 324/2/5 323/2/5
f 328/2/5 323/2/5 315/2/5
f 329/2/5 326/2/5 325/2/5
f 329/2/5 325/2/5 321/2/5
f 330/2/5 326/2/5 329/2/5
f 331/2/5 326/2/5 330/2/5
f 332/2/5 328/2/5 327/2/5
f 333/2/5 324/2/5 328/2/5
f 333/2/5 328/2/5 332/2/5
f 334/2/5 324/2/5 333/2/5
f 336/2/5 331/2/5 330/2/5
f 336/2/5 333/2/5 332/2/5
f 336/2/5 332/2/5 331/2/5
f 337/2/5 333/2/5 336/2/5
f 339/1/5 336/1/5 335/1/5
f 339/1/5 338/1/5 337/1/5
f 339/1/5 337/1/5 336/1/5
f 340/1/5 338/1/5 339/1/5
f 343/1/5 341/1/5 340/1/5
f 344/1/5 341/1/5 343/1/5
f 346/1/5 343/1/5 342/1/5
f 347/1/5 343/1/5 346/1/5
f 349/1/5 346/1/5 345/1/5
f 349/1/5 348/1/5 347/1/5
f 349/1/5 347/1/5 346/1/5
f 350/1/5 348/1/5 349/1/5
f 355/2/5 352/2/5 351/2/5
f 358/2/5 354/2/5 353/2/5
f 359/2/5 356/2/5 355/2/5
f 359/2/5 355/2/5 351/2/5
f 360/2/5 356/2/5 359/2/5
f 361/2/5 358/2/5 357/2/5
f 361/2/5 354/2/5 358/2/5
f 362/2/5 354/2/5 361/2/5
f 364/2/5 356/2/5 360/2/5
f 365/2/5 361/2/5 357/2/5
f 367/2/5 364/2/5 363/2/5
f 367/2/5 356/2/5 364/2/5
f 370/2/5 366/2/5 365/2/5
f 370/2/5 365/2/5 357/2/5
f 371/2/5 368/2/5 367/2/5
f 371/2/5 367/2/5 363/2/5
f 372/2/5 368/2/5 371/2/5
f 373/2/5 368/2/5 372/2/5
f 374/2/5 370/2/5 369/2/5
f 375/2/5 366/2/5 370/2/5
f 375/2/5 370/2/5 374/2/5
f 376/2/5 366/2/5 375/2/5
f 377/2/5 373/2/5 372/2/5
f 377/2/5 374/2/5 373/2/5
f 377/2/5 375/2/5 374/2/5
f 378/2/5 375/2/5 377/2/5
f 381/1/5 380/1/5 379/1/5
f 382/1/5 380/1/5 381/1/5
f 383/2/6 384/2/6 387/2/6
f 385/2/6 386/2/6 390/2/6
f 387/2/6 388/2/6 391/2/6
f 383/2/6 387/2/6 391/2/6
f 391/2/6 388/2/6 392/2/6
f 389/2/6 390/2/6 393/2/6
f 390/2/6 386/2/6 393/2/6
f 393/2/6 386/2/6 394/2/6
f 392/2/6 388/2/6 396/2/6
f 389/2/6 393/2/6 397/2/6
f 395/2/6 396/2/6 399/2/6
f 396/2/6 388/2/6 399/2/6
f 397/2/6 398/2/6 402/2/6
f 389/2/6 397/2/6 402/2/6
f 399/2/6 400/2/6 403/2/6
f 395/2/6 399/2/6 403/2/6
f 403/2/6 400/2/6 404/2/6
f 404/2/6 400/2/6 405/2/6
f 401/2/6 402/2/6 406/2/6
f 402/2/6 398/2/6 407/2/6
f 406/2/6 402/2/6 407/2/6
f 407/2/6 398/2/6 408/2/6
f 404/2/6 405/2/6 409/2/6
f 405/2/6 406/2/6 409/2/6
f 406/2/6 407/2/6 409/2/6
f 409/2/6 407/2/6 410/2/6
f 411/2/6 412/2/6 415/2/6
f 413/2/6 414/2/6 418/2/6
f 415/2/6 416/2/6 419/2/6
f 411/2/6 415/2/6 419/2/6
f 419/2/6 416/2/6 420/2/6
f 417/2/6 418/2/6 421/2/6
f 418/2/6 414/2/6 421/2/6
f 421/2/6 414/2/6 422/2/6
f 420/2/6 416/2/6 424/2/6
f 417/2/6 421/2/6 425/2/6
f 423/2/6 424/2/6 427/2/6
f 424/2/6 416/2/6 427/2/6
f 425/2/6 426/2/6 430/2/6
f 417/2/6 425/2/6 430/2/6
f 427/2/6 428/2/6 431/2/6
f 423/2/6 427/2/6 431/2/6
f 431/2/6 428/2/6 432/2/6
f 432/2/6 428/2/6 433/2/6
f 429/2/6 430/2/6 434/2/6
f 430/2/6 426/2/6 435/2/6
f 434/2/6 430/2/6 435/2/6
f 435/2/6 426/2/6 436/2/6
f 432/2/6 433/2/6 438/2/6
f 434/2/6 435/2/6 438/2/6
f 433/2/6 434/2/6 438/2/6
f 438/2/6 435/2/6 439/2/6
f 437/1/6 438/1/6 442/1/6
f 439/1/6 440/1/6 442/1/6
f 438/1/6 439/1/6 442/1/6
f 442/1/6 440/1/6 443/1/6
f 441/1/6 442/1/6 445/1/6
f 445/1/6 442/1/6 446/1/6
f 443/1/6 444/1/6 447/1/6
f 447/1/6 444/1/6 448/1/6
f 446/1/6 447/1/6 450/1/6
f 450/1/6 447/1/6 451/1/6
f 449/1/6 450/1/6 453/1/6
f 451/1/6 452/1/6 453/1/6
f 450/1/6 451/1/6 453/1/6
f 453/1/6 452/1/6 454/1/6
