# MagicaVoxel @ Ephtracy

# group
o witch-left-01

# material
mtllib Witch00-0-witch-left-01.mtl
usemtl palette

# normals
vn -1 0 0
vn 1 0 0
vn 0 0 1
vn 0 0 -1
vn 0 -1 0
vn 0 1 0

# texcoords
vt 0.169922 0.5

# verts
v -3.2 0 0.4
v -3.2 0 -0.4
v -3.2 0.2 0.4
v -3.2 0.2 -0.4
v -2.4 0 3.2
v -2.4 0 2.8
v -2.4 0 0.8
v -2.4 0 0.4
v -2.4 0 -1.6
v -2.4 0 -2.4
v -2.4 0.2 3.2
v -2.4 0.2 2.8
v -2.4 0.2 0.8
v -2.4 0.2 0.4
v -2.4 0.2 -1.6
v -2.4 0.2 -2.4
v -2 0 1.2
v -2 0 0.8
v -2 0 -2.4
v -2 0 -2.8
v -2 0.2 1.2
v -2 0.2 0.8
v -2 0.2 -2.4
v -2 0.2 -2.8
v -1.6 0 -0.4
v -1.6 0 -2
v -1.6 0 -2.8
v -1.6 0 -3.2
v -1.6 0 -4
v -1.6 0 -4.4
v -1.6 0.1 -4
v -1.6 0.1 -4.4
v -1.6 0.2 -0.4
v -1.6 0.2 -2
v -1.6 0.2 -2.8
v -1.6 0.2 -3.2
v -1.2 0 4
v -1.2 0 3.6
v -1.2 0 2.8
v -1.2 0 1.2
v -1.2 0 0.4
v -1.2 0 0
v -1.2 0 -2.4
v -1.2 0 -2.8
v -1.2 0 -3.6
v -1.2 0 -4
v -1.2 0.1 -4
v -1.2 0.2 4
v -1.2 0.2 3.6
v -1.2 0.2 2.8
v -1.2 0.2 1.2
v -1.2 0.2 0.4
v -1.2 0.2 0
v -1.2 0.2 -2.4
v -1.2 0.2 -2.8
v -1.2 0.2 -3.6
v -1.2 0.2 -4
v -0.8 0 0
v -0.8 0 -0.4
v -0.8 0 -2
v -0.8 0 -2.4
v -0.8 0 -3.2
v -0.8 0 -3.6
v -0.8 0.2 0
v -0.8 0.2 -0.4
v -0.8 0.2 -2
v -0.8 0.2 -2.4
v -0.8 0.2 -3.2
v -0.8 0.2 -3.6
v -0.4 0 1.6
v -0.4 0 0.8
v -0.4 0 -0.4
v -0.4 0 -0.8
v -0.4 0 -2.8
v -0.4 0 -3.2
v -0.4 0.2 1.6
v -0.4 0.2 0.8
v -0.4 0.2 -0.4
v -0.4 0.2 -0.8
v -0.4 0.2 -2.8
v -0.4 0.2 -3.2
v 0 0 3.6
v 0 0 2.8
v 0 0 0.8
v 0 0 0
v 0 0 -2.4
v 0 0 -2.8
v 0 0.2 3.6
v 0 0.2 2.8
v 0 0.2 0.8
v 0 0.2 0
v 0 0.2 -2.4
v 0 0.2 -2.8
v 0.4 0 0
v 0.4 0 -0.8
v 0.4 0 -2
v 0.4 0 -2.4
v 0.4 0.2 0
v 0.4 0.2 -0.8
v 0.4 0.2 -2
v 0.4 0.2 -2.4
v 0.8 0 3.6
v 0.8 0 3.2
v 0.8 0 -1.6
v 0.8 0 -2
v 0.8 0.2 3.6
v 0.8 0.2 3.2
v 0.8 0.2 -1.6
v 0.8 0.2 -2
v 1.2 0 4
v 1.2 0 3.6
v 1.2 0 3.2
v 1.2 0 2.8
v 1.2 0 -4
v 1.2 0 -4.4
v 1.2 0.2 4
v 1.2 0.2 3.6
v 1.2 0.2 3.2
v 1.2 0.2 2.8
v 1.2 0.2 -4
v 1.2 0.2 -4.4
v 1.6 0 4.4
v 1.6 0 4
v 1.6 0.2 4.4
v 1.6 0.2 4
v 2 0 0.8
v 2 0 0
v 2 0.2 0.8
v 2 0.2 0
v 2.4 0 4.4
v 2.4 0 3.2
v 2.4 0.2 4.4
v 2.4 0.2 3.2
v -2.4 0 0
v -2.4 0 -0.4
v -2.4 0.2 0
v -2.4 0.2 -0.4
v -2 0 0.4
v -2 0 0
v -2 0 -1.6
v -2 0 -2
v -2 0.2 0.4
v -2 0.2 0
v -2 0.2 -1.6
v -2 0.2 -2
v -1.6 0 -2.4
v -1.6 0 -2.8
v -1.6 0.2 -2.4
v -1.6 0.2 -2.8
v -1.2 0 -0.4
v -1.2 0 -0.8
v -1.2 0 -2
v -1.2 0 -2.4
v -1.2 0 -4
v -1.2 0 -4.4
v -1.2 0.1 -4
v -1.2 0.1 -4.4
v -1.2 0.2 -0.4
v -1.2 0.2 -0.8
v -1.2 0.2 -2
v -1.2 0.2 -2.4
v -0.8 0 3.2
v -0.8 0 2.8
v -0.8 0 1.6
v -0.8 0 0.8
v -0.8 0 -2.8
v -0.8 0 -3.2
v -0.8 0.2 3.2
v -0.8 0.2 2.8
v -0.8 0.2 1.6
v -0.8 0.2 0.8
v -0.8 0.2 -2.8
v -0.8 0.2 -3.2
v -0.4 0 0.8
v -0.4 0 0
v -0.4 0 -2.4
v -0.4 0 -2.8
v -0.4 0.2 0.8
v -0.4 0.2 0
v -0.4 0.2 -2.4
v -0.4 0.2 -2.8
v 0 0 0
v 0 0 -0.8
v 0 0 -1.6
v 0 0 -2.4
v 0 0.2 0
v 0 0.2 -0.8
v 0 0.2 -1.6
v 0 0.2 -2.4
v 0.4 0 3.6
v 0.4 0 3.2
v 0.4 0.2 3.6
v 0.4 0.2 3.2
v 0.8 0 4
v 0.8 0 3.6
v 0.8 0 3.2
v 0.8 0 2.8
v 0.8 0 -0.8
v 0.8 0 -1.6
v 0.8 0 -2
v 0.8 0 -2.4
v 0.8 0.2 4
v 0.8 0.2 3.6
v 0.8 0.2 3.2
v 0.8 0.2 2.8
v 0.8 0.2 -0.8
v 0.8 0.2 -1.6
v 0.8 0.2 -2
v 0.8 0.2 -2.4
v 1.2 0 -0.4
v 1.2 0 -0.8
v 1.2 0 -1.6
v 1.2 0 -2
v 1.2 0 -2.4
v 1.2 0 -2.8
v 1.2 0.2 -0.4
v 1.2 0.2 -0.8
v 1.2 0.2 -1.6
v 1.2 0.2 -2
v 1.2 0.2 -2.4
v 1.2 0.2 -2.8
v 1.6 0 0.8
v 1.6 0 0
v 1.6 0 -2.8
v 1.6 0 -3.2
v 1.6 0.2 0.8
v 1.6 0.2 0
v 1.6 0.2 -2.8
v 1.6 0.2 -3.2
v 2 0 4.4
v 2 0 2.8
v 2 0 0
v 2 0 -0.4
v 2 0 -3.2
v 2 0 -3.6
v 2 0.2 4.4
v 2 0.2 2.8
v 2 0.2 0
v 2 0.2 -0.4
v 2 0.2 -3.2
v 2 0.2 -3.6
v 2.4 0 2.8
v 2.4 0 2.4
v 2.4 0 -3.6
v 2.4 0 -4
v 2.4 0.2 2.8
v 2.4 0.2 2.4
v 2.4 0.2 -3.6
v 2.4 0.2 -4
v 2.8 0 4.4
v 2.8 0 3.2
v 2.8 0 2.4
v 2.8 0 1.6
v 2.8 0 0.4
v 2.8 0 0
v 2.8 0.2 4.4
v 2.8 0.2 3.2
v 2.8 0.2 2.4
v 2.8 0.2 1.6
v 2.8 0.2 0.4
v 2.8 0.2 0
v 3.2 0 1.6
v 3.2 0 0.4
v 3.2 0 -4
v 3.2 0 -4.4
v 3.2 0.2 1.6
v 3.2 0.2 0.4
v 3.2 0.2 -4
v 3.2 0.2 -4.4
v 1.6 0 4.4
v 1.6 0.2 4.4
v 2 0 4.4
v 2 0.2 4.4
v 2.4 0 4.4
v 2.4 0.2 4.4
v 2.8 0 4.4
v 2.8 0.2 4.4
v -1.2 0 4
v -1.2 0.2 4
v 0.8 0 4
v 0.8 0.2 4
v 1.2 0 4
v 1.2 0.2 4
v 1.6 0 4
v 1.6 0.2 4
v 0.8 0 3.6
v 0.8 0.2 3.6
v 1.2 0 3.6
v 1.2 0.2 3.6
v -2.4 0 3.2
v -2.4 0.2 3.2
v -0.8 0 3.2
v -0.8 0.2 3.2
v 0.4 0 3.2
v 0.4 0.2 3.2
v 0.8 0 3.2
v 0.8 0.2 3.2
v -0.8 0 2.8
v -0.8 0.2 2.8
v 0 0 2.8
v 0 0.2 2.8
v 0.8 0 2.8
v 0.8 0.2 2.8
v 1.2 0 2.8
v 1.2 0.2 2.8
v 2 0 2.8
v 2 0.2 2.8
v 2.4 0 2.8
v 2.4 0.2 2.8
v 2.4 0 2.4
v 2.4 0.2 2.4
v 2.8 0 2.4
v 2.8 0.2 2.4
v 2.8 0 1.6
v 2.8 0.2 1.6
v 3.2 0 1.6
v 3.2 0.2 1.6
v -2 0 1.2
v -2 0.2 1.2
v -1.2 0 1.2
v -1.2 0.2 1.2
v -2.4 0 0.8
v -2.4 0.2 0.8
v -2 0 0.8
v -2 0.2 0.8
v -0.8 0 0.8
v -0.8 0.2 0.8
v -0.4 0 0.8
v -0.4 0.2 0.8
v -3.2 0 0.4
v -3.2 0.2 0.4
v -2.4 0 0.4
v -2.4 0.2 0.4
v -0.4 0 0
v -0.4 0.2 0
v 0 0 0
v 0 0.2 0
v 1.6 0 0
v 1.6 0.2 0
v 2 0 0
v 2 0.2 0
v -1.6 0 -0.4
v -1.6 0.2 -0.4
v -1.2 0 -0.4
v -1.2 0.2 -0.4
v -1.2 0 -0.8
v -1.2 0.2 -0.8
v -0.4 0 -0.8
v -0.4 0.2 -0.8
v 0 0 -0.8
v 0 0.2 -0.8
v 0.4 0 -0.8
v 0.4 0.2 -0.8
v -2.4 0 -1.6
v -2.4 0.2 -1.6
v -2 0 -1.6
v -2 0.2 -1.6
v 0.8 0 -1.6
v 0.8 0.2 -1.6
v 1.2 0 -1.6
v 1.2 0.2 -1.6
v -2 0 -2
v -2 0.2 -2
v -1.6 0 -2
v -1.6 0.2 -2
v 0.4 0 -2
v 0.4 0.2 -2
v 0.8 0 -2
v 0.8 0.2 -2
v -1.2 0 -2.4
v -1.2 0.2 -2.4
v -0.8 0 -2.4
v -0.8 0.2 -2.4
v 0 0 -2.4
v 0 0.2 -2.4
v 0.4 0 -2.4
v 0.4 0.2 -2.4
v 0.8 0 -2.4
v 0.8 0.2 -2.4
v 1.2 0 -2.4
v 1.2 0.2 -2.4
v -1.6 0 -2.8
v -1.6 0.2 -2.8
v -1.2 0 -2.8
v -1.2 0.2 -2.8
v -0.4 0 -2.8
v -0.4 0.2 -2.8
v 0 0 -2.8
v 0 0.2 -2.8
v 1.2 0 -2.8
v 1.2 0.2 -2.8
v 1.6 0 -2.8
v 1.6 0.2 -2.8
v -0.8 0 -3.2
v -0.8 0.2 -3.2
v -0.4 0 -3.2
v -0.4 0.2 -3.2
v 1.6 0 -3.2
v 1.6 0.2 -3.2
v 2 0 -3.2
v 2 0.2 -3.2
v -1.2 0 -3.6
v -1.2 0.2 -3.6
v -0.8 0 -3.6
v -0.8 0.2 -3.6
v 2 0 -3.6
v 2 0.2 -3.6
v 2.4 0 -3.6
v 2.4 0.2 -3.6
v -1.6 0 -4
v -1.6 0.1 -4
v -1.2 0 -4
v -1.2 0.1 -4
v 2.4 0 -4
v 2.4 0.2 -4
v 3.2 0 -4
v 3.2 0.2 -4
v -1.2 0 3.6
v -1.2 0.2 3.6
v 0 0 3.6
v 0 0.2 3.6
v 0.4 0 3.6
v 0.4 0.2 3.6
v 0.8 0 3.6
v 0.8 0.2 3.6
v 0.8 0 3.2
v 0.8 0.2 3.2
v 1.2 0 3.2
v 1.2 0.2 3.2
v 2.4 0 3.2
v 2.4 0.2 3.2
v 2.8 0 3.2
v 2.8 0.2 3.2
v -2.4 0 2.8
v -2.4 0.2 2.8
v -1.2 0 2.8
v -1.2 0.2 2.8
v -0.8 0 1.6
v -0.8 0.2 1.6
v -0.4 0 1.6
v -0.4 0.2 1.6
v -0.4 0 0.8
v -0.4 0.2 0.8
v 0 0 0.8
v 0 0.2 0.8
v 1.6 0 0.8
v 1.6 0.2 0.8
v 2 0 0.8
v 2 0.2 0.8
v -2 0 0.4
v -2 0.2 0.4
v -1.2 0 0.4
v -1.2 0.2 0.4
v 2.8 0 0.4
v 2.8 0.2 0.4
v 3.2 0 0.4
v 3.2 0.2 0.4
v -2.4 0 0
v -2.4 0.2 0
v -2 0 0
v -2 0.2 0
v -1.2 0 0
v -1.2 0.2 0
v -0.8 0 0
v -0.8 0.2 0
v 0 0 0
v 0 0.2 0
v 0.4 0 0
v 0.4 0.2 0
v 2 0 0
v 2 0.2 0
v 2.8 0 0
v 2.8 0.2 0
v -3.2 0 -0.4
v -3.2 0.2 -0.4
v -2.4 0 -0.4
v -2.4 0.2 -0.4
v -0.8 0 -0.4
v -0.8 0.2 -0.4
v -0.4 0 -0.4
v -0.4 0.2 -0.4
v 1.2 0 -0.4
v 1.2 0.2 -0.4
v 2 0 -0.4
v 2 0.2 -0.4
v 0.8 0 -0.8
v 0.8 0.2 -0.8
v 1.2 0 -0.8
v 1.2 0.2 -0.8
v 0 0 -1.6
v 0 0.2 -1.6
v 0.8 0 -1.6
v 0.8 0.2 -1.6
v -1.2 0 -2
v -1.2 0.2 -2
v -0.8 0 -2
v -0.8 0.2 -2
v 0.8 0 -2
v 0.8 0.2 -2
v 1.2 0 -2
v 1.2 0.2 -2
v -2.4 0 -2.4
v -2.4 0.2 -2.4
v -2 0 -2.4
v -2 0.2 -2.4
v -1.6 0 -2.4
v -1.6 0.2 -2.4
v -1.2 0 -2.4
v -1.2 0.2 -2.4
v -0.4 0 -2.4
v -0.4 0.2 -2.4
v 0 0 -2.4
v 0 0.2 -2.4
v -2 0 -2.8
v -2 0.2 -2.8
v -1.6 0 -2.8
v -1.6 0.2 -2.8
v -0.8 0 -2.8
v -0.8 0.2 -2.8
v -0.4 0 -2.8
v -0.4 0.2 -2.8
v -1.6 0 -3.2
v -1.6 0.2 -3.2
v -0.8 0 -3.2
v -0.8 0.2 -3.2
v -1.2 0 -4
v -1.2 0.1 -4
v -1.2 0.2 -4
v 1.2 0 -4
v 1.2 0.2 -4
v -1.6 0 -4.4
v -1.6 0.1 -4.4
v -1.2 0 -4.4
v -1.2 0.1 -4.4
v 1.2 0 -4.4
v 1.2 0.2 -4.4
v 3.2 0 -4.4
v 3.2 0.2 -4.4
v 1.6 0 4.4
v 2 0 4.4
v 2.4 0 4.4
v 2.8 0 4.4
v -1.2 0 4
v 0.8 0 4
v 1.2 0 4
v 1.6 0 4
v -1.2 0 3.6
v 0 0 3.6
v 0.4 0 3.6
v 0.8 0 3.6
v 1.2 0 3.6
v -2.4 0 3.2
v -0.8 0 3.2
v 0.4 0 3.2
v 0.8 0 3.2
v 1.2 0 3.2
v 2.4 0 3.2
v 2.8 0 3.2
v -2.4 0 2.8
v -1.2 0 2.8
v -0.8 0 2.8
v 0 0 2.8
v 0.8 0 2.8
v 1.2 0 2.8
v 2 0 2.8
v 2.4 0 2.8
v 2.4 0 2.4
v 2.8 0 2.4
v -0.8 0 1.6
v -0.4 0 1.6
v 2.8 0 1.6
v 3.2 0 1.6
v -2 0 1.2
v -1.2 0 1.2
v -2.4 0 0.8
v -2 0 0.8
v -0.8 0 0.8
v -0.4 0 0.8
v 0 0 0.8
v 1.6 0 0.8
v 2 0 0.8
v -3.2 0 0.4
v -2.4 0 0.4
v -2 0 0.4
v -1.2 0 0.4
v 2.8 0 0.4
v 3.2 0 0.4
v -2.4 0 0
v -2 0 0
v -1.2 0 0
v -0.8 0 0
v -0.4 0 0
v 0 0 0
v 0.4 0 0
v 1.6 0 0
v 2 0 0
v 2.8 0 0
v -3.2 0 -0.4
v -2.4 0 -0.4
v -1.6 0 -0.4
v -1.2 0 -0.4
v -0.8 0 -0.4
v -0.4 0 -0.4
v 1.2 0 -0.4
v 2 0 -0.4
v -1.2 0 -0.8
v -0.4 0 -0.8
v 0 0 -0.8
v 0.4 0 -0.8
v 0.8 0 -0.8
v 1.2 0 -0.8
v -2.4 0 -1.6
v -2 0 -1.6
v 0 0 -1.6
v 0.8 0 -1.6
v 1.2 0 -1.6
v -2 0 -2
v -1.6 0 -2
v -1.2 0 -2
v -0.8 0 -2
v 0.4 0 -2
v 0.8 0 -2
v 1.2 0 -2
v -2.4 0 -2.4
v -2 0 -2.4
v -1.6 0 -2.4
v -1.2 0 -2.4
v -0.8 0 -2.4
v -0.4 0 -2.4
v 0 0 -2.4
v 0.4 0 -2.4
v 0.8 0 -2.4
v 1.2 0 -2.4
v -2 0 -2.8
v -1.6 0 -2.8
v -1.2 0 -2.8
v -0.8 0 -2.8
v -0.4 0 -2.8
v 0 0 -2.8
v 1.2 0 -2.8
v 1.6 0 -2.8
v -1.6 0 -3.2
v -0.8 0 -3.2
v -0.4 0 -3.2
v 1.6 0 -3.2
v 2 0 -3.2
v -1.2 0 -3.6
v -0.8 0 -3.6
v 2 0 -3.6
v 2.4 0 -3.6
v -1.6 0 -4
v -1.2 0 -4
v 1.2 0 -4
v 2.4 0 -4
v 3.2 0 -4
v -1.6 0 -4.4
v -1.2 0 -4.4
v 1.2 0 -4.4
v 3.2 0 -4.4
v -1.6 0.1 -4
v -1.2 0.1 -4
v -1.6 0.1 -4.4
v -1.2 0.1 -4.4
v 1.6 0.2 4.4
v 2 0.2 4.4
v 2.4 0.2 4.4
v 2.8 0.2 4.4
v -1.2 0.2 4
v 0.8 0.2 4
v 1.2 0.2 4
v 1.6 0.2 4
v -1.2 0.2 3.6
v 0 0.2 3.6
v 0.4 0.2 3.6
v 0.8 0.2 3.6
v 1.2 0.2 3.6
v -2.4 0.2 3.2
v -0.8 0.2 3.2
v 0.4 0.2 3.2
v 0.8 0.2 3.2
v 1.2 0.2 3.2
v 2.4 0.2 3.2
v 2.8 0.2 3.2
v -2.4 0.2 2.8
v -1.2 0.2 2.8
v -0.8 0.2 2.8
v 0 0.2 2.8
v 0.8 0.2 2.8
v 1.2 0.2 2.8
v 2 0.2 2.8
v 2.4 0.2 2.8
v 2.4 0.2 2.4
v 2.8 0.2 2.4
v -0.8 0.2 1.6
v -0.4 0.2 1.6
v 2.8 0.2 1.6
v 3.2 0.2 1.6
v -2 0.2 1.2
v -1.2 0.2 1.2
v -2.4 0.2 0.8
v -2 0.2 0.8
v -0.8 0.2 0.8
v -0.4 0.2 0.8
v 0 0.2 0.8
v 1.6 0.2 0.8
v 2 0.2 0.8
v -3.2 0.2 0.4
v -2.4 0.2 0.4
v -2 0.2 0.4
v -1.2 0.2 0.4
v 2.8 0.2 0.4
v 3.2 0.2 0.4
v -2.4 0.2 0
v -2 0.2 0
v -1.2 0.2 0
v -0.8 0.2 0
v -0.4 0.2 0
v 0 0.2 0
v 0.4 0.2 0
v 1.6 0.2 0
v 2 0.2 0
v 2.8 0.2 0
v -3.2 0.2 -0.4
v -2.4 0.2 -0.4
v -1.6 0.2 -0.4
v -1.2 0.2 -0.4
v -0.8 0.2 -0.4
v -0.4 0.2 -0.4
v 1.2 0.2 -0.4
v 2 0.2 -0.4
v -1.2 0.2 -0.8
v -0.4 0.2 -0.8
v 0 0.2 -0.8
v 0.4 0.2 -0.8
v 0.8 0.2 -0.8
v 1.2 0.2 -0.8
v -2.4 0.2 -1.6
v -2 0.2 -1.6
v 0 0.2 -1.6
v 0.8 0.2 -1.6
v 1.2 0.2 -1.6
v -2 0.2 -2
v -1.6 0.2 -2
v -1.2 0.2 -2
v -0.8 0.2 -2
v 0.4 0.2 -2
v 0.8 0.2 -2
v 1.2 0.2 -2
v -2.4 0.2 -2.4
v -2 0.2 -2.4
v -1.6 0.2 -2.4
v -1.2 0.2 -2.4
v -0.8 0.2 -2.4
v -0.4 0.2 -2.4
v 0 0.2 -2.4
v 0.4 0.2 -2.4
v 0.8 0.2 -2.4
v 1.2 0.2 -2.4
v -2 0.2 -2.8
v -1.6 0.2 -2.8
v -1.2 0.2 -2.8
v -0.8 0.2 -2.8
v -0.4 0.2 -2.8
v 0 0.2 -2.8
v 1.2 0.2 -2.8
v 1.6 0.2 -2.8
v -1.6 0.2 -3.2
v -0.8 0.2 -3.2
v -0.4 0.2 -3.2
v 1.6 0.2 -3.2
v 2 0.2 -3.2
v -1.2 0.2 -3.6
v -0.8 0.2 -3.6
v 2 0.2 -3.6
v 2.4 0.2 -3.6
v -1.2 0.2 -4
v 1.2 0.2 -4
v 2.4 0.2 -4
v 3.2 0.2 -4
v 1.2 0.2 -4.4
v 3.2 0.2 -4.4

# faces
f 3/1/1 2/1/1 1/1/1
f 4/1/1 2/1/1 3/1/1
f 11/1/1 6/1/1 5/1/1
f 12/1/1 6/1/1 11/1/1
f 13/1/1 8/1/1 7/1/1
f 14/1/1 8/1/1 13/1/1
f 15/1/1 10/1/1 9/1/1
f 16/1/1 10/1/1 15/1/1
f 21/1/1 18/1/1 17/1/1
f 22/1/1 18/1/1 21/1/1
f 23/1/1 20/1/1 19/1/1
f 24/1/1 20/1/1 23/1/1
f 31/1/1 30/1/1 29/1/1
f 32/1/1 30/1/1 31/1/1
f 33/1/1 26/1/1 25/1/1
f 34/1/1 26/1/1 33/1/1
f 35/1/1 28/1/1 27/1/1
f 36/1/1 28/1/1 35/1/1
f 47/1/1 46/1/1 45/1/1
f 48/1/1 38/1/1 37/1/1
f 49/1/1 38/1/1 48/1/1
f 50/1/1 40/1/1 39/1/1
f 51/1/1 40/1/1 50/1/1
f 52/1/1 42/1/1 41/1/1
f 53/1/1 42/1/1 52/1/1
f 54/1/1 44/1/1 43/1/1
f 55/1/1 44/1/1 54/1/1
f 56/1/1 47/1/1 45/1/1
f 57/1/1 47/1/1 56/1/1
f 64/1/1 59/1/1 58/1/1
f 65/1/1 59/1/1 64/1/1
f 66/1/1 61/1/1 60/1/1
f 67/1/1 61/1/1 66/1/1
f 68/1/1 63/1/1 62/1/1
f 69/1/1 63/1/1 68/1/1
f 76/1/1 71/1/1 70/1/1
f 77/1/1 71/1/1 76/1/1
f 78/1/1 73/1/1 72/1/1
f 79/1/1 73/1/1 78/1/1
f 80/1/1 75/1/1 74/1/1
f 81/1/1 75/1/1 80/1/1
f 88/1/1 83/1/1 82/1/1
f 89/1/1 83/1/1 88/1/1
f 90/1/1 85/1/1 84/1/1
f 91/1/1 85/1/1 90/1/1
f 92/1/1 87/1/1 86/1/1
f 93/1/1 87/1/1 92/1/1
f 98/1/1 95/1/1 94/1/1
f 99/1/1 95/1/1 98/1/1
f 100/1/1 97/1/1 96/1/1
f 101/1/1 97/1/1 100/1/1
f 106/1/1 103/1/1 102/1/1
f 107/1/1 103/1/1 106/1/1
f 108/1/1 105/1/1 104/1/1
f 109/1/1 105/1/1 108/1/1
f 116/1/1 111/1/1 110/1/1
f 117/1/1 111/1/1 116/1/1
f 118/1/1 113/1/1 112/1/1
f 119/1/1 113/1/1 118/1/1
f 120/1/1 115/1/1 114/1/1
f 121/1/1 115/1/1 120/1/1
f 124/1/1 123/1/1 122/1/1
f 125/1/1 123/1/1 124/1/1
f 128/1/1 127/1/1 126/1/1
f 129/1/1 127/1/1 128/1/1
f 132/1/1 131/1/1 130/1/1
f 133/1/1 131/1/1 132/1/1
f 134/1/2 135/1/2 136/1/2
f 136/1/2 135/1/2 137/1/2
f 138/1/2 139/1/2 142/1/2
f 142/1/2 139/1/2 143/1/2
f 140/1/2 141/1/2 144/1/2
f 144/1/2 141/1/2 145/1/2
f 146/1/2 147/1/2 148/1/2
f 148/1/2 147/1/2 149/1/2
f 154/1/2 155/1/2 156/1/2
f 156/1/2 155/1/2 157/1/2
f 150/1/2 151/1/2 158/1/2
f 158/1/2 151/1/2 159/1/2
f 152/1/2 153/1/2 160/1/2
f 160/1/2 153/1/2 161/1/2
f 162/1/2 163/1/2 168/1/2
f 168/1/2 163/1/2 169/1/2
f 164/1/2 165/1/2 170/1/2
f 170/1/2 165/1/2 171/1/2
f 166/1/2 167/1/2 172/1/2
f 172/1/2 167/1/2 173/1/2
f 174/1/2 175/1/2 178/1/2
f 178/1/2 175/1/2 179/1/2
f 176/1/2 177/1/2 180/1/2
f 180/1/2 177/1/2 181/1/2
f 182/1/2 183/1/2 186/1/2
f 186/1/2 183/1/2 187/1/2
f 184/1/2 185/1/2 188/1/2
f 188/1/2 185/1/2 189/1/2
f 190/1/2 191/1/2 192/1/2
f 192/1/2 191/1/2 193/1/2
f 194/1/2 195/1/2 202/1/2
f 202/1/2 195/1/2 203/1/2
f 196/1/2 197/1/2 204/1/2
f 204/1/2 197/1/2 205/1/2
f 198/1/2 199/1/2 206/1/2
f 206/1/2 199/1/2 207/1/2
f 200/1/2 201/1/2 208/1/2
f 208/1/2 201/1/2 209/1/2
f 210/1/2 211/1/2 216/1/2
f 216/1/2 211/1/2 217/1/2
f 212/1/2 213/1/2 218/1/2
f 218/1/2 213/1/2 219/1/2
f 214/1/2 215/1/2 220/1/2
f 220/1/2 215/1/2 221/1/2
f 222/1/2 223/1/2 226/1/2
f 226/1/2 223/1/2 227/1/2
f 224/1/2 225/1/2 228/1/2
f 228/1/2 225/1/2 229/1/2
f 230/1/2 231/1/2 236/1/2
f 236/1/2 231/1/2 237/1/2
f 232/1/2 233/1/2 238/1/2
f 238/1/2 233/1/2 239/1/2
f 234/1/2 235/1/2 240/1/2
f 240/1/2 235/1/2 241/1/2
f 242/1/2 243/1/2 246/1/2
f 246/1/2 243/1/2 247/1/2
f 244/1/2 245/1/2 248/1/2
f 248/1/2 245/1/2 249/1/2
f 250/1/2 251/1/2 256/1/2
f 256/1/2 251/1/2 257/1/2
f 252/1/2 253/1/2 258/1/2
f 258/1/2 253/1/2 259/1/2
f 254/1/2 255/1/2 260/1/2
f 260/1/2 255/1/2 261/1/2
f 262/1/2 263/1/2 266/1/2
f 266/1/2 263/1/2 267/1/2
f 264/1/2 265/1/2 268/1/2
f 268/1/2 265/1/2 269/1/2
f 272/1/3 271/1/3 270/1/3
f 273/1/3 271/1/3 272/1/3
f 276/1/3 275/1/3 274/1/3
f 277/1/3 275/1/3 276/1/3
f 280/1/3 279/1/3 278/1/3
f 281/1/3 279/1/3 280/1/3
f 284/1/3 283/1/3 282/1/3
f 285/1/3 283/1/3 284/1/3
f 288/1/3 287/1/3 286/1/3
f 289/1/3 287/1/3 288/1/3
f 292/1/3 291/1/3 290/1/3
f 293/1/3 291/1/3 292/1/3
f 296/1/3 295/1/3 294/1/3
f 297/1/3 295/1/3 296/1/3
f 300/1/3 299/1/3 298/1/3
f 301/1/3 299/1/3 300/1/3
f 304/1/3 303/1/3 302/1/3
f 305/1/3 303/1/3 304/1/3
f 308/1/3 307/1/3 306/1/3
f 309/1/3 307/1/3 308/1/3
f 312/1/3 311/1/3 310/1/3
f 313/1/3 311/1/3 312/1/3
f 316/1/3 315/1/3 314/1/3
f 317/1/3 315/1/3 316/1/3
f 320/1/3 319/1/3 318/1/3
f 321/1/3 319/1/3 320/1/3
f 324/1/3 323/1/3 322/1/3
f 325/1/3 323/1/3 324/1/3
f 328/1/3 327/1/3 326/1/3
f 329/1/3 327/1/3 328/1/3
f 332/1/3 331/1/3 330/1/3
f 333/1/3 331/1/3 332/1/3
f 336/1/3 335/1/3 334/1/3
f 337/1/3 335/1/3 336/1/3
f 340/1/3 339/1/3 338/1/3
f 341/1/3 339/1/3 340/1/3
f 344/1/3 343/1/3 342/1/3
f 345/1/3 343/1/3 344/1/3
f 348/1/3 347/1/3 346/1/3
f 349/1/3 347/1/3 348/1/3
f 352/1/3 351/1/3 350/1/3
f 353/1/3 351/1/3 352/1/3
f 356/1/3 355/1/3 354/1/3
f 357/1/3 355/1/3 356/1/3
f 360/1/3 359/1/3 358/1/3
f 361/1/3 359/1/3 360/1/3
f 364/1/3 363/1/3 362/1/3
f 365/1/3 363/1/3 364/1/3
f 368/1/3 367/1/3 366/1/3
f 369/1/3 367/1/3 368/1/3
f 372/1/3 371/1/3 370/1/3
f 373/1/3 371/1/3 372/1/3
f 376/1/3 375/1/3 374/1/3
f 377/1/3 375/1/3 376/1/3
f 380/1/3 379/1/3 378/1/3
f 381/1/3 379/1/3 380/1/3
f 384/1/3 383/1/3 382/1/3
f 385/1/3 383/1/3 384/1/3
f 388/1/3 387/1/3 386/1/3
f 389/1/3 387/1/3 388/1/3
f 392/1/3 391/1/3 390/1/3
f 393/1/3 391/1/3 392/1/3
f 396/1/3 395/1/3 394/1/3
f 397/1/3 395/1/3 396/1/3
f 400/1/3 399/1/3 398/1/3
f 401/1/3 399/1/3 400/1/3
f 404/1/3 403/1/3 402/1/3
f 405/1/3 403/1/3 404/1/3
f 408/1/3 407/1/3 406/1/3
f 409/1/3 407/1/3 408/1/3
f 412/1/3 411/1/3 410/1/3
f 413/1/3 411/1/3 412/1/3
f 416/1/3 415/1/3 414/1/3
f 417/1/3 415/1/3 416/1/3
f 418/1/4 419/1/4 420/1/4
f 420/1/4 419/1/4 421/1/4
f 422/1/4 423/1/4 424/1/4
f 424/1/4 423/1/4 425/1/4
f 426/1/4 427/1/4 428/1/4
f 428/1/4 427/1/4 429/1/4
f 430/1/4 431/1/4 432/1/4
f 432/1/4 431/1/4 433/1/4
f 434/1/4 435/1/4 436/1/4
f 436/1/4 435/1/4 437/1/4
f 438/1/4 439/1/4 440/1/4
f 440/1/4 439/1/4 441/1/4
f 442/1/4 443/1/4 444/1/4
f 444/1/4 443/1/4 445/1/4
f 446/1/4 447/1/4 448/1/4
f 448/1/4 447/1/4 449/1/4
f 450/1/4 451/1/4 452/1/4
f 452/1/4 451/1/4 453/1/4
f 454/1/4 455/1/4 456/1/4
f 456/1/4 455/1/4 457/1/4
f 458/1/4 459/1/4 460/1/4
f 460/1/4 459/1/4 461/1/4
f 462/1/4 463/1/4 464/1/4
f 464/1/4 463/1/4 465/1/4
f 466/1/4 467/1/4 468/1/4
f 468/1/4 467/1/4 469/1/4
f 470/1/4 471/1/4 472/1/4
f 472/1/4 471/1/4 473/1/4
f 474/1/4 475/1/4 476/1/4
f 476/1/4 475/1/4 477/1/4
f 478/1/4 479/1/4 480/1/4
f 480/1/4 479/1/4 481/1/4
f 482/1/4 483/1/4 484/1/4
f 484/1/4 483/1/4 485/1/4
f 486/1/4 487/1/4 488/1/4
f 488/1/4 487/1/4 489/1/4
f 490/1/4 491/1/4 492/1/4
f 492/1/4 491/1/4 493/1/4
f 494/1/4 495/1/4 496/1/4
f 496/1/4 495/1/4 497/1/4
f 498/1/4 499/1/4 500/1/4
f 500/1/4 499/1/4 501/1/4
f 502/1/4 503/1/4 504/1/4
f 504/1/4 503/1/4 505/1/4
f 506/1/4 507/1/4 508/1/4
f 508/1/4 507/1/4 509/1/4
f 510/1/4 511/1/4 512/1/4
f 512/1/4 511/1/4 513/1/4
f 514/1/4 515/1/4 516/1/4
f 516/1/4 515/1/4 517/1/4
f 518/1/4 519/1/4 520/1/4
f 520/1/4 519/1/4 521/1/4
f 522/1/4 523/1/4 524/1/4
f 524/1/4 523/1/4 525/1/4
f 526/1/4 527/1/4 529/1/4
f 527/1/4 528/1/4 529/1/4
f 529/1/4 528/1/4 530/1/4
f 531/1/4 532/1/4 533/1/4
f 533/1/4 532/1/4 534/1/4
f 535/1/4 536/1/4 537/1/4
f 537/1/4 536/1/4 538/1/4
f 546/1/5 540/1/5 539/1/5
f 547/1/5 544/1/5 543/1/5
f 548/1/5 544/1/5 547/1/5
f 549/1/5 544/1/5 548/1/5
f 550/1/5 544/1/5 549/1/5
f 551/1/5 546/1/5 545/1/5
f 554/1/5 549/1/5 548/1/5
f 555/1/5 551/1/5 550/1/5
f 556/1/5 546/1/5 551/1/5
f 556/1/5 551/1/5 555/1/5
f 557/1/5 542/1/5 541/1/5
f 558/1/5 542/1/5 557/1/5
f 559/1/5 553/1/5 552/1/5
f 560/1/5 553/1/5 559/1/5
f 561/1/5 553/1/5 560/1/5
f 562/1/5 554/1/5 548/1/5
f 562/1/5 555/1/5 554/1/5
f 563/1/5 555/1/5 562/1/5
f 564/1/5 546/1/5 556/1/5
f 565/1/5 540/1/5 546/1/5
f 565/1/5 546/1/5 564/1/5
f 567/1/5 561/1/5 560/1/5
f 567/1/5 566/1/5 565/1/5
f 567/1/5 565/1/5 564/1/5
f 567/1/5 563/1/5 562/1/5
f 567/1/5 562/1/5 561/1/5
f 567/1/5 564/1/5 563/1/5
f 569/1/5 567/1/5 560/1/5
f 569/1/5 568/1/5 567/1/5
f 570/1/5 568/1/5 569/1/5
f 571/1/5 568/1/5 570/1/5
f 574/1/5 569/1/5 560/1/5
f 576/1/5 574/1/5 573/1/5
f 577/1/5 569/1/5 574/1/5
f 577/1/5 574/1/5 576/1/5
f 578/1/5 571/1/5 570/1/5
f 578/1/5 572/1/5 571/1/5
f 579/1/5 572/1/5 578/1/5
f 580/1/5 572/1/5 579/1/5
f 581/1/5 572/1/5 580/1/5
f 583/1/5 577/1/5 576/1/5
f 583/1/5 576/1/5 575/1/5
f 583/1/5 578/1/5 577/1/5
f 584/1/5 578/1/5 583/1/5
f 585/1/5 578/1/5 584/1/5
f 586/1/5 572/1/5 581/1/5
f 587/1/5 572/1/5 586/1/5
f 588/1/5 583/1/5 582/1/5
f 588/1/5 584/1/5 583/1/5
f 589/1/5 584/1/5 588/1/5
f 590/1/5 578/1/5 585/1/5
f 591/1/5 578/1/5 590/1/5
f 592/1/5 578/1/5 591/1/5
f 593/1/5 580/1/5 579/1/5
f 594/1/5 580/1/5 593/1/5
f 595/1/5 580/1/5 594/1/5
f 596/1/5 586/1/5 581/1/5
f 597/1/5 586/1/5 596/1/5
f 598/1/5 588/1/5 582/1/5
f 599/1/5 588/1/5 598/1/5
f 602/1/5 592/1/5 591/1/5
f 602/1/5 593/1/5 592/1/5
f 603/1/5 593/1/5 602/1/5
f 604/1/5 595/1/5 594/1/5
f 604/1/5 596/1/5 595/1/5
f 605/1/5 596/1/5 604/1/5
f 606/1/5 601/1/5 600/1/5
f 607/1/5 593/1/5 603/1/5
f 608/1/5 593/1/5 607/1/5
f 609/1/5 604/1/5 594/1/5
f 610/1/5 604/1/5 609/1/5
f 611/1/5 604/1/5 610/1/5
f 614/1/5 608/1/5 607/1/5
f 614/1/5 607/1/5 606/1/5
f 614/1/5 609/1/5 608/1/5
f 614/1/5 610/1/5 609/1/5
f 615/1/5 610/1/5 614/1/5
f 617/1/5 613/1/5 612/1/5
f 618/1/5 606/1/5 600/1/5
f 618/1/5 614/1/5 606/1/5
f 619/1/5 614/1/5 618/1/5
f 620/1/5 614/1/5 619/1/5
f 622/1/5 616/1/5 615/1/5
f 623/1/5 616/1/5 622/1/5
f 624/1/5 617/1/5 612/1/5
f 624/1/5 618/1/5 617/1/5
f 624/1/5 619/1/5 618/1/5
f 625/1/5 619/1/5 624/1/5
f 626/1/5 619/1/5 625/1/5
f 627/1/5 619/1/5 626/1/5
f 628/1/5 614/1/5 620/1/5
f 629/1/5 614/1/5 628/1/5
f 630/1/5 614/1/5 629/1/5
f 631/1/5 622/1/5 621/1/5
f 632/1/5 622/1/5 631/1/5
f 634/1/5 626/1/5 625/1/5
f 635/1/5 626/1/5 634/1/5
f 636/1/5 628/1/5 627/1/5
f 636/1/5 629/1/5 628/1/5
f 637/1/5 629/1/5 636/1/5
f 638/1/5 629/1/5 637/1/5
f 639/1/5 633/1/5 632/1/5
f 639/1/5 632/1/5 631/1/5
f 639/1/5 631/1/5 630/1/5
f 640/1/5 633/1/5 639/1/5
f 642/1/5 637/1/5 636/1/5
f 642/1/5 636/1/5 635/1/5
f 643/1/5 637/1/5 642/1/5
f 644/1/5 640/1/5 639/1/5
f 644/1/5 641/1/5 640/1/5
f 644/1/5 639/1/5 638/1/5
f 645/1/5 641/1/5 644/1/5
f 648/1/5 646/1/5 645/1/5
f 648/1/5 645/1/5 644/1/5
f 648/1/5 644/1/5 643/1/5
f 649/1/5 646/1/5 648/1/5
f 652/1/5 649/1/5 648/1/5
f 652/1/5 650/1/5 649/1/5
f 652/1/5 648/1/5 647/1/5
f 653/1/5 650/1/5 652/1/5
f 654/1/5 650/1/5 653/1/5
f 656/1/5 652/1/5 651/1/5
f 657/1/5 652/1/5 656/1/5
f 658/1/5 654/1/5 653/1/5
f 658/1/5 655/1/5 654/1/5
f 659/1/5 655/1/5 658/1/5
f 660/1/6 661/1/6 662/1/6
f 662/1/6 661/1/6 663/1/6
f 664/1/6 665/1/6 671/1/6
f 668/1/6 669/1/6 672/1/6
f 672/1/6 669/1/6 673/1/6
f 673/1/6 669/1/6 674/1/6
f 674/1/6 669/1/6 675/1/6
f 670/1/6 671/1/6 676/1/6
f 673/1/6 674/1/6 679/1/6
f 675/1/6 676/1/6 680/1/6
f 676/1/6 671/1/6 681/1/6
f 680/1/6 676/1/6 681/1/6
f 666/1/6 667/1/6 682/1/6
f 682/1/6 667/1/6 683/1/6
f 677/1/6 678/1/6 684/1/6
f 684/1/6 678/1/6 685/1/6
f 685/1/6 678/1/6 686/1/6
f 673/1/6 679/1/6 687/1/6
f 679/1/6 680/1/6 687/1/6
f 687/1/6 680/1/6 688/1/6
f 681/1/6 671/1/6 689/1/6
f 671/1/6 665/1/6 690/1/6
f 689/1/6 671/1/6 690/1/6
f 685/1/6 686/1/6 692/1/6
f 690/1/6 691/1/6 692/1/6
f 689/1/6 690/1/6 692/1/6
f 687/1/6 688/1/6 692/1/6
f 686/1/6 687/1/6 692/1/6
f 688/1/6 689/1/6 692/1/6
f 685/1/6 692/1/6 694/1/6
f 692/1/6 693/1/6 694/1/6
f 694/1/6 693/1/6 695/1/6
f 695/1/6 693/1/6 696/1/6
f 685/1/6 694/1/6 699/1/6
f 698/1/6 699/1/6 701/1/6
f 699/1/6 694/1/6 702/1/6
f 701/1/6 699/1/6 702/1/6
f 695/1/6 696/1/6 703/1/6
f 696/1/6 697/1/6 703/1/6
f 703/1/6 697/1/6 704/1/6
f 704/1/6 697/1/6 705/1/6
f 705/1/6 697/1/6 706/1/6
f 701/1/6 702/1/6 708/1/6
f 700/1/6 701/1/6 708/1/6
f 702/1/6 703/1/6 708/1/6
f 708/1/6 703/1/6 709/1/6
f 709/1/6 703/1/6 710/1/6
f 706/1/6 697/1/6 711/1/6
f 711/1/6 697/1/6 712/1/6
f 707/1/6 708/1/6 713/1/6
f 708/1/6 709/1/6 713/1/6
f 713/1/6 709/1/6 714/1/6
f 710/1/6 703/1/6 715/1/6
f 715/1/6 703/1/6 716/1/6
f 716/1/6 703/1/6 717/1/6
f 704/1/6 705/1/6 718/1/6
f 718/1/6 705/1/6 719/1/6
f 719/1/6 705/1/6 720/1/6
f 706/1/6 711/1/6 721/1/6
f 721/1/6 711/1/6 722/1/6
f 707/1/6 713/1/6 723/1/6
f 723/1/6 713/1/6 724/1/6
f 716/1/6 717/1/6 727/1/6
f 717/1/6 718/1/6 727/1/6
f 727/1/6 718/1/6 728/1/6
f 719/1/6 720/1/6 729/1/6
f 720/1/6 721/1/6 729/1/6
f 729/1/6 721/1/6 730/1/6
f 725/1/6 726/1/6 731/1/6
f 728/1/6 718/1/6 732/1/6
f 732/1/6 718/1/6 733/1/6
f 719/1/6 729/1/6 734/1/6
f 734/1/6 729/1/6 735/1/6
f 735/1/6 729/1/6 736/1/6
f 732/1/6 733/1/6 739/1/6
f 731/1/6 732/1/6 739/1/6
f 733/1/6 734/1/6 739/1/6
f 734/1/6 735/1/6 739/1/6
f 739/1/6 735/1/6 740/1/6
f 737/1/6 738/1/6 742/1/6
f 725/1/6 731/1/6 743/1/6
f 731/1/6 739/1/6 743/1/6
f 743/1/6 739/1/6 744/1/6
f 744/1/6 739/1/6 745/1/6
f 740/1/6 741/1/6 747/1/6
f 747/1/6 741/1/6 748/1/6
f 737/1/6 742/1/6 749/1/6
f 742/1/6 743/1/6 749/1/6
f 743/1/6 744/1/6 749/1/6
f 749/1/6 744/1/6 750/1/6
f 750/1/6 744/1/6 751/1/6
f 751/1/6 744/1/6 752/1/6
f 745/1/6 739/1/6 753/1/6
f 753/1/6 739/1/6 754/1/6
f 754/1/6 739/1/6 755/1/6
f 746/1/6 747/1/6 756/1/6
f 756/1/6 747/1/6 757/1/6
f 750/1/6 751/1/6 759/1/6
f 759/1/6 751/1/6 760/1/6
f 752/1/6 753/1/6 761/1/6
f 753/1/6 754/1/6 761/1/6
f 761/1/6 754/1/6 762/1/6
f 762/1/6 754/1/6 763/1/6
f 757/1/6 758/1/6 764/1/6
f 756/1/6 757/1/6 764/1/6
f 755/1/6 756/1/6 764/1/6
f 764/1/6 758/1/6 765/1/6
f 761/1/6 762/1/6 767/1/6
f 760/1/6 761/1/6 767/1/6
f 767/1/6 762/1/6 768/1/6
f 764/1/6 765/1/6 769/1/6
f 765/1/6 766/1/6 769/1/6
f 763/1/6 764/1/6 769/1/6
f 769/1/6 766/1/6 770/1/6
f 770/1/6 771/1/6 773/1/6
f 769/1/6 770/1/6 773/1/6
f 768/1/6 769/1/6 773/1/6
f 773/1/6 771/1/6 774/1/6
f 773/1/6 774/1/6 776/1/6
f 774/1/6 775/1/6 776/1/6
f 772/1/6 773/1/6 776/1/6
f 776/1/6 775/1/6 777/1/6
f 777/1/6 775/1/6 778/1/6
f 777/1/6 778/1/6 780/1/6
f 778/1/6 779/1/6 780/1/6
f 780/1/6 779/1/6 781/1/6
