# MagicaVoxel @ Ephtracy

# group
o b28

# material
mtllib Picture03-0-b28.mtl
usemtl palette

# normals
vn -1 0 0
vn 1 0 0
vn 0 0 1
vn 0 0 -1
vn 0 -1 0
vn 0 1 0

# texcoords
vt 0.00195313 0.5
vt 0.119141 0.5

# verts
v -0.8 0 -0.1
v -0.8 0 -0.8
v -0.8 0.1 -0.1
v -0.8 0.1 -0.8
v -0.7 0 0.2
v -0.7 0 0
v -0.7 0 -0.1
v -0.7 0.1 0.2
v -0.7 0.1 0
v -0.7 0.1 -0.1
v -0.6 0 0.4
v -0.6 0 0.2
v -0.6 0.1 0.4
v -0.6 0.1 0.2
v -0.5 0 0.5
v -0.5 0 0.4
v -0.5 0 0
v -0.5 0 -0.2
v -0.5 0 -0.3
v -0.5 0 -0.4
v -0.5 0.1 0.5
v -0.5 0.1 0.4
v -0.5 0.1 0
v -0.5 0.1 -0.2
v -0.5 0.1 -0.3
v -0.5 0.1 -0.4
v -0.4 0 0.6
v -0.4 0 0.5
v -0.4 0.1 0.6
v -0.4 0.1 0.5
v -0.3 0 0.7
v -0.3 0 0.6
v -0.3 0 0
v -0.3 0 -0.5
v -0.3 0 -0.6
v -0.3 0 -0.7
v -0.3 0.1 0.7
v -0.3 0.1 0.6
v -0.3 0.1 0
v -0.3 0.1 -0.5
v -0.3 0.1 -0.6
v -0.3 0.1 -0.7
v -0.1 0 0.8
v -0.1 0 0.7
v -0.1 0 -0.1
v -0.1 0 -0.4
v -0.1 0 -0.7
v -0.1 0 -0.8
v -0.1 0.1 0.8
v -0.1 0.1 0.7
v -0.1 0.1 -0.1
v -0.1 0.1 -0.4
v -0.1 0.1 -0.7
v -0.1 0.1 -0.8
v 0.1 0 0
v 0.1 0 -0.1
v 0.1 0 -0.4
v 0.1 0 -0.5
v 0.1 0.1 0
v 0.1 0.1 -0.1
v 0.1 0.1 -0.4
v 0.1 0.1 -0.5
v 0.3 0 0.5
v 0.3 0 0.4
v 0.3 0 0.3
v 0.3 0 0.2
v 0.3 0 -0.1
v 0.3 0 -0.4
v 0.3 0.1 0.5
v 0.3 0.1 0.4
v 0.3 0.1 0.3
v 0.3 0.1 0.2
v 0.3 0.1 -0.1
v 0.3 0.1 -0.4
v 0.4 0 0.4
v 0.4 0 0.3
v 0.4 0.1 0.4
v 0.4 0.1 0.3
v 0.5 0 -0.6
v 0.5 0 -0.7
v 0.5 0.1 -0.6
v 0.5 0.1 -0.7
v 0.6 0 0
v 0.6 0 -0.3
v 0.6 0 -0.4
v 0.6 0 -0.5
v 0.6 0.1 0
v 0.6 0.1 -0.3
v 0.6 0.1 -0.4
v 0.6 0.1 -0.5
v 0.7 0 -0.7
v 0.7 0 -0.8
v 0.7 0.1 -0.7
v 0.7 0.1 -0.8
v -0.7 0 -0.7
v -0.7 0 -0.8
v -0.7 0.1 -0.7
v -0.7 0.1 -0.8
v -0.6 0 0
v -0.6 0 -0.5
v -0.6 0.1 0
v -0.6 0.1 -0.5
v -0.5 0 -0.6
v -0.5 0 -0.7
v -0.5 0.1 -0.6
v -0.5 0.1 -0.7
v -0.4 0 0.4
v -0.4 0 0.3
v -0.4 0 0
v -0.4 0 -0.2
v -0.4 0 -0.3
v -0.4 0 -0.4
v -0.4 0.1 0.4
v -0.4 0.1 0.3
v -0.4 0.1 0
v -0.4 0.1 -0.2
v -0.4 0.1 -0.3
v -0.4 0.1 -0.4
v -0.2 0 0
v -0.2 0 -0.5
v -0.2 0.1 0
v -0.2 0.1 -0.5
v 0.1 0 0.8
v 0.1 0 0.7
v 0.1 0 -0.7
v 0.1 0 -0.8
v 0.1 0.1 0.8
v 0.1 0.1 0.7
v 0.1 0.1 -0.7
v 0.1 0.1 -0.8
v 0.2 0 0.5
v 0.2 0 0.4
v 0.2 0 0.3
v 0.2 0 0.2
v 0.2 0 0
v 0.2 0 -0.5
v 0.2 0.1 0.5
v 0.2 0.1 0.4
v 0.2 0.1 0.3
v 0.2 0.1 0.2
v 0.2 0.1 0
v 0.2 0.1 -0.5
v 0.3 0 0.7
v 0.3 0 0.6
v 0.3 0 -0.6
v 0.3 0 -0.7
v 0.3 0.1 0.7
v 0.3 0.1 0.6
v 0.3 0.1 -0.6
v 0.3 0.1 -0.7
v 0.4 0 0.6
v 0.4 0 0.5
v 0.4 0 -0.2
v 0.4 0 -0.3
v 0.4 0.1 0.6
v 0.4 0.1 0.5
v 0.4 0.1 -0.2
v 0.4 0.1 -0.3
v 0.5 0 0.5
v 0.5 0 0.4
v 0.5 0 -0.1
v 0.5 0 -0.2
v 0.5 0.1 0.5
v 0.5 0.1 0.4
v 0.5 0.1 -0.1
v 0.5 0.1 -0.2
v 0.6 0 0.4
v 0.6 0 0.2
v 0.6 0.1 0.4
v 0.6 0.1 0.2
v 0.7 0 0.2
v 0.7 0 0
v 0.7 0 -0.1
v 0.7 0.1 0.2
v 0.7 0.1 0
v 0.7 0.1 -0.1
v 0.8 0 -0.1
v 0.8 0 -0.8
v 0.8 0.1 -0.1
v 0.8 0.1 -0.8
v -0.1 0 0.8
v -0.1 0.1 0.8
v 0 0 0.8
v 0 0.1 0.8
v 0.1 0 0.8
v 0.1 0.1 0.8
v -0.3 0 0.7
v -0.3 0.1 0.7
v -0.1 0 0.7
v -0.1 0.1 0.7
v 0.1 0 0.7
v 0.1 0.1 0.7
v 0.3 0 0.7
v 0.3 0.1 0.7
v -0.4 0 0.6
v -0.4 0.1 0.6
v -0.3 0 0.6
v -0.3 0.1 0.6
v 0.3 0 0.6
v 0.3 0.1 0.6
v 0.4 0 0.6
v 0.4 0.1 0.6
v -0.5 0 0.5
v -0.5 0.1 0.5
v -0.4 0 0.5
v -0.4 0.1 0.5
v 0.4 0 0.5
v 0.4 0.1 0.5
v 0.5 0 0.5
v 0.5 0.1 0.5
v -0.6 0 0.4
v -0.6 0.1 0.4
v -0.5 0 0.4
v -0.5 0.1 0.4
v 0.5 0 0.4
v 0.5 0.1 0.4
v 0.6 0 0.4
v 0.6 0.1 0.4
v -0.4 0 0.3
v -0.4 0.1 0.3
v 0 0 0.3
v 0 0.1 0.3
v 0.2 0 0.3
v 0.2 0.1 0.3
v 0.3 0 0.3
v 0.3 0.1 0.3
v 0.4 0 0.3
v 0.4 0.1 0.3
v -0.7 0 0.2
v -0.7 0.1 0.2
v -0.6 0 0.2
v -0.6 0.1 0.2
v 0.2 0 0.2
v 0.2 0.1 0.2
v 0.3 0 0.2
v 0.3 0.1 0.2
v 0.6 0 0.2
v 0.6 0.1 0.2
v 0.7 0 0.2
v 0.7 0.1 0.2
v -0.8 0 -0.1
v -0.8 0.1 -0.1
v -0.7 0 -0.1
v -0.7 0.1 -0.1
v -0.1 0 -0.1
v -0.1 0.1 -0.1
v 0 0 -0.1
v 0 0.1 -0.1
v 0.1 0 -0.1
v 0.1 0.1 -0.1
v 0.3 0 -0.1
v 0.3 0.1 -0.1
v 0.5 0 -0.1
v 0.5 0.1 -0.1
v 0.7 0 -0.1
v 0.7 0.1 -0.1
v 0.8 0 -0.1
v 0.8 0.1 -0.1
v -0.5 0 -0.3
v -0.5 0.1 -0.3
v -0.4 0 -0.3
v -0.4 0.1 -0.3
v 0.4 0 -0.3
v 0.4 0.1 -0.3
v 0.6 0 -0.3
v 0.6 0.1 -0.3
v -0.6 0 -0.5
v -0.6 0.1 -0.5
v -0.3 0 -0.5
v -0.3 0.1 -0.5
v -0.2 0 -0.5
v -0.2 0.1 -0.5
v 0 0 -0.5
v 0 0.1 -0.5
v 0.1 0 -0.5
v 0.1 0.1 -0.5
v 0.2 0 -0.5
v 0.2 0.1 -0.5
v 0.6 0 -0.5
v 0.6 0.1 -0.5
v 0.2 0 0.5
v 0.2 0.1 0.5
v 0.3 0 0.5
v 0.3 0.1 0.5
v -0.4 0 0.4
v -0.4 0.1 0.4
v 0 0 0.4
v 0 0.1 0.4
v 0.2 0 0.4
v 0.2 0.1 0.4
v 0.3 0 0.4
v 0.3 0.1 0.4
v 0.4 0 0.4
v 0.4 0.1 0.4
v -0.6 0 0
v -0.6 0.1 0
v -0.5 0 0
v -0.5 0.1 0
v -0.4 0 0
v -0.4 0.1 0
v -0.3 0 0
v -0.3 0.1 0
v -0.2 0 0
v -0.2 0.1 0
v 0 0 0
v 0 0.1 0
v 0.1 0 0
v 0.1 0.1 0
v 0.2 0 0
v 0.2 0.1 0
v 0.6 0 0
v 0.6 0.1 0
v -0.5 0 -0.2
v -0.5 0.1 -0.2
v -0.4 0 -0.2
v -0.4 0.1 -0.2
v 0.4 0 -0.2
v 0.4 0.1 -0.2
v 0.5 0 -0.2
v 0.5 0.1 -0.2
v -0.5 0 -0.4
v -0.5 0.1 -0.4
v -0.4 0 -0.4
v -0.4 0.1 -0.4
v -0.1 0 -0.4
v -0.1 0.1 -0.4
v 0 0 -0.4
v 0 0.1 -0.4
v 0.1 0 -0.4
v 0.1 0.1 -0.4
v 0.3 0 -0.4
v 0.3 0.1 -0.4
v 0.6 0 -0.4
v 0.6 0.1 -0.4
v -0.5 0 -0.6
v -0.5 0.1 -0.6
v -0.3 0 -0.6
v -0.3 0.1 -0.6
v 0.3 0 -0.6
v 0.3 0.1 -0.6
v 0.5 0 -0.6
v 0.5 0.1 -0.6
v -0.7 0 -0.7
v -0.7 0.1 -0.7
v -0.5 0 -0.7
v -0.5 0.1 -0.7
v -0.3 0 -0.7
v -0.3 0.1 -0.7
v -0.1 0 -0.7
v -0.1 0.1 -0.7
v 0.1 0 -0.7
v 0.1 0.1 -0.7
v 0.3 0 -0.7
v 0.3 0.1 -0.7
v 0.5 0 -0.7
v 0.5 0.1 -0.7
v 0.7 0 -0.7
v 0.7 0.1 -0.7
v -0.8 0 -0.8
v -0.8 0.1 -0.8
v -0.7 0 -0.8
v -0.7 0.1 -0.8
v -0.1 0 -0.8
v -0.1 0.1 -0.8
v 0 0 -0.8
v 0 0.1 -0.8
v 0.1 0 -0.8
v 0.1 0.1 -0.8
v 0.7 0 -0.8
v 0.7 0.1 -0.8
v 0.8 0 -0.8
v 0.8 0.1 -0.8
v -0.1 0 0.8
v 0 0 0.8
v 0.1 0 0.8
v -0.3 0 0.7
v -0.1 0 0.7
v 0.1 0 0.7
v 0.3 0 0.7
v -0.4 0 0.6
v -0.3 0 0.6
v 0.3 0 0.6
v 0.4 0 0.6
v -0.5 0 0.5
v -0.4 0 0.5
v 0.2 0 0.5
v 0.3 0 0.5
v 0.4 0 0.5
v 0.5 0 0.5
v -0.6 0 0.4
v -0.5 0 0.4
v -0.4 0 0.4
v 0 0 0.4
v 0.2 0 0.4
v 0.3 0 0.4
v 0.4 0 0.4
v 0.5 0 0.4
v 0.6 0 0.4
v -0.4 0 0.3
v 0 0 0.3
v 0.2 0 0.3
v 0.3 0 0.3
v 0.4 0 0.3
v -0.7 0 0.2
v -0.6 0 0.2
v 0.2 0 0.2
v 0.3 0 0.2
v 0.6 0 0.2
v 0.7 0 0.2
v -0.7 0 0
v -0.6 0 0
v -0.5 0 0
v -0.4 0 0
v -0.3 0 0
v -0.2 0 0
v 0 0 0
v 0.1 0 0
v 0.2 0 0
v 0.6 0 0
v 0.7 0 0
v -0.8 0 -0.1
v -0.7 0 -0.1
v -0.1 0 -0.1
v 0 0 -0.1
v 0.1 0 -0.1
v 0.3 0 -0.1
v 0.5 0 -0.1
v 0.7 0 -0.1
v 0.8 0 -0.1
v -0.5 0 -0.2
v -0.4 0 -0.2
v 0.4 0 -0.2
v 0.5 0 -0.2
v -0.5 0 -0.3
v -0.4 0 -0.3
v 0.4 0 -0.3
v 0.6 0 -0.3
v -0.5 0 -0.4
v -0.4 0 -0.4
v -0.1 0 -0.4
v 0 0 -0.4
v 0.1 0 -0.4
v 0.3 0 -0.4
v 0.6 0 -0.4
v -0.6 0 -0.5
v -0.3 0 -0.5
v -0.2 0 -0.5
v 0 0 -0.5
v 0.1 0 -0.5
v 0.2 0 -0.5
v 0.6 0 -0.5
v -0.5 0 -0.6
v -0.3 0 -0.6
v 0.3 0 -0.6
v 0.5 0 -0.6
v -0.7 0 -0.7
v -0.5 0 -0.7
v -0.3 0 -0.7
v -0.1 0 -0.7
v 0.1 0 -0.7
v 0.3 0 -0.7
v 0.5 0 -0.7
v 0.7 0 -0.7
v -0.8 0 -0.8
v -0.7 0 -0.8
v -0.1 0 -0.8
v 0 0 -0.8
v 0.1 0 -0.8
v 0.7 0 -0.8
v 0.8 0 -0.8
v -0.1 0.1 0.8
v 0 0.1 0.8
v 0.1 0.1 0.8
v -0.3 0.1 0.7
v -0.1 0.1 0.7
v 0.1 0.1 0.7
v 0.3 0.1 0.7
v -0.4 0.1 0.6
v -0.3 0.1 0.6
v 0.3 0.1 0.6
v 0.4 0.1 0.6
v -0.5 0.1 0.5
v -0.4 0.1 0.5
v 0.2 0.1 0.5
v 0.3 0.1 0.5
v 0.4 0.1 0.5
v 0.5 0.1 0.5
v -0.6 0.1 0.4
v -0.5 0.1 0.4
v -0.4 0.1 0.4
v 0 0.1 0.4
v 0.2 0.1 0.4
v 0.3 0.1 0.4
v 0.4 0.1 0.4
v 0.5 0.1 0.4
v 0.6 0.1 0.4
v -0.4 0.1 0.3
v 0 0.1 0.3
v 0.2 0.1 0.3
v 0.3 0.1 0.3
v 0.4 0.1 0.3
v -0.7 0.1 0.2
v -0.6 0.1 0.2
v 0.2 0.1 0.2
v 0.3 0.1 0.2
v 0.6 0.1 0.2
v 0.7 0.1 0.2
v -0.7 0.1 0
v -0.6 0.1 0
v -0.5 0.1 0
v -0.4 0.1 0
v -0.3 0.1 0
v -0.2 0.1 0
v 0 0.1 0
v 0.1 0.1 0
v 0.2 0.1 0
v 0.6 0.1 0
v 0.7 0.1 0
v -0.8 0.1 -0.1
v -0.7 0.1 -0.1
v -0.1 0.1 -0.1
v 0 0.1 -0.1
v 0.1 0.1 -0.1
v 0.3 0.1 -0.1
v 0.5 0.1 -0.1
v 0.7 0.1 -0.1
v 0.8 0.1 -0.1
v -0.5 0.1 -0.2
v -0.4 0.1 -0.2
v 0.4 0.1 -0.2
v 0.5 0.1 -0.2
v -0.5 0.1 -0.3
v -0.4 0.1 -0.3
v 0.4 0.1 -0.3
v 0.6 0.1 -0.3
v -0.5 0.1 -0.4
v -0.4 0.1 -0.4
v -0.1 0.1 -0.4
v 0 0.1 -0.4
v 0.1 0.1 -0.4
v 0.3 0.1 -0.4
v 0.6 0.1 -0.4
v -0.6 0.1 -0.5
v -0.3 0.1 -0.5
v -0.2 0.1 -0.5
v 0 0.1 -0.5
v 0.1 0.1 -0.5
v 0.2 0.1 -0.5
v 0.6 0.1 -0.5
v -0.5 0.1 -0.6
v -0.3 0.1 -0.6
v 0.3 0.1 -0.6
v 0.5 0.1 -0.6
v -0.7 0.1 -0.7
v -0.5 0.1 -0.7
v -0.3 0.1 -0.7
v -0.1 0.1 -0.7
v 0.1 0.1 -0.7
v 0.3 0.1 -0.7
v 0.5 0.1 -0.7
v 0.7 0.1 -0.7
v -0.8 0.1 -0.8
v -0.7 0.1 -0.8
v -0.1 0.1 -0.8
v 0 0.1 -0.8
v 0.1 0.1 -0.8
v 0.7 0.1 -0.8
v 0.8 0.1 -0.8

# faces
f 3/1/1 2/1/1 1/1/1
f 4/1/1 2/1/1 3/1/1
f 8/2/1 6/2/1 5/2/1
f 9/1/1 7/1/1 6/1/1
f 9/2/1 6/2/1 8/2/1
f 10/1/1 7/1/1 9/1/1
f 13/2/1 12/2/1 11/2/1
f 14/2/1 12/2/1 13/2/1
f 21/2/1 16/2/1 15/2/1
f 22/2/1 16/2/1 21/2/1
f 23/1/1 18/1/1 17/1/1
f 24/1/1 18/1/1 23/1/1
f 25/1/1 20/1/1 19/1/1
f 26/1/1 20/1/1 25/1/1
f 29/2/1 28/2/1 27/2/1
f 30/2/1 28/2/1 29/2/1
f 37/2/1 32/2/1 31/2/1
f 38/2/1 32/2/1 37/2/1
f 39/1/1 34/1/1 33/1/1
f 40/1/1 34/1/1 39/1/1
f 41/1/1 36/1/1 35/1/1
f 42/1/1 36/1/1 41/1/1
f 49/2/1 44/2/1 43/2/1
f 50/2/1 44/2/1 49/2/1
f 51/1/1 46/1/1 45/1/1
f 52/1/1 46/1/1 51/1/1
f 53/1/1 48/1/1 47/1/1
f 54/1/1 48/1/1 53/1/1
f 59/2/1 56/2/1 55/2/1
f 60/2/1 56/2/1 59/2/1
f 61/2/1 58/2/1 57/2/1
f 62/2/1 58/2/1 61/2/1
f 69/1/1 64/1/1 63/1/1
f 70/1/1 64/1/1 69/1/1
f 71/1/1 66/1/1 65/1/1
f 72/1/1 66/1/1 71/1/1
f 73/2/1 68/2/1 67/2/1
f 74/2/1 68/2/1 73/2/1
f 77/1/1 76/1/1 75/1/1
f 78/1/1 76/1/1 77/1/1
f 81/2/1 80/2/1 79/2/1
f 82/2/1 80/2/1 81/2/1
f 87/2/1 84/2/1 83/2/1
f 88/2/1 84/2/1 87/2/1
f 89/2/1 86/2/1 85/2/1
f 90/2/1 86/2/1 89/2/1
f 93/2/1 92/2/1 91/2/1
f 94/2/1 92/2/1 93/2/1
f 95/1/2 96/1/2 97/1/2
f 97/1/2 96/1/2 98/1/2
f 99/1/2 100/1/2 101/1/2
f 101/1/2 100/1/2 102/1/2
f 103/1/2 104/1/2 105/1/2
f 105/1/2 104/1/2 106/1/2
f 107/2/2 108/2/2 113/2/2
f 113/2/2 108/2/2 114/2/2
f 109/1/2 110/1/2 115/1/2
f 115/1/2 110/1/2 116/1/2
f 111/1/2 112/1/2 117/1/2
f 117/1/2 112/1/2 118/1/2
f 119/1/2 120/1/2 121/1/2
f 121/1/2 120/1/2 122/1/2
f 123/1/2 124/1/2 127/1/2
f 127/1/2 124/1/2 128/1/2
f 125/2/2 126/2/2 129/2/2
f 129/2/2 126/2/2 130/2/2
f 131/1/2 132/1/2 137/1/2
f 137/1/2 132/1/2 138/1/2
f 133/1/2 134/1/2 139/1/2
f 139/1/2 134/1/2 140/1/2
f 135/2/2 136/2/2 141/2/2
f 141/2/2 136/2/2 142/2/2
f 143/1/2 144/1/2 147/1/2
f 147/1/2 144/1/2 148/1/2
f 145/2/2 146/2/2 149/2/2
f 149/2/2 146/2/2 150/2/2
f 151/1/2 152/1/2 155/1/2
f 155/1/2 152/1/2 156/1/2
f 153/2/2 154/2/2 157/2/2
f 157/2/2 154/2/2 158/2/2
f 159/1/2 160/1/2 163/1/2
f 163/1/2 160/1/2 164/1/2
f 161/2/2 162/2/2 165/2/2
f 165/2/2 162/2/2 166/2/2
f 167/1/2 168/1/2 169/1/2
f 169/1/2 168/1/2 170/1/2
f 171/1/2 172/1/2 174/1/2
f 172/2/2 173/2/2 175/2/2
f 174/1/2 172/1/2 175/1/2
f 175/2/2 173/2/2 176/2/2
f 177/2/2 178/2/2 179/2/2
f 179/2/2 178/2/2 180/2/2
f 183/2/3 182/2/3 181/2/3
f 184/2/3 182/2/3 183/2/3
f 185/1/3 184/1/3 183/1/3
f 186/1/3 184/1/3 185/1/3
f 189/2/3 188/2/3 187/2/3
f 190/2/3 188/2/3 189/2/3
f 193/1/3 192/1/3 191/1/3
f 194/1/3 192/1/3 193/1/3
f 197/2/3 196/2/3 195/2/3
f 198/2/3 196/2/3 197/2/3
f 201/1/3 200/1/3 199/1/3
f 202/1/3 200/1/3 201/1/3
f 205/2/3 204/2/3 203/2/3
f 206/2/3 204/2/3 205/2/3
f 209/1/3 208/1/3 207/1/3
f 210/1/3 208/1/3 209/1/3
f 213/2/3 212/2/3 211/2/3
f 214/2/3 212/2/3 213/2/3
f 217/1/3 216/1/3 215/1/3
f 218/1/3 216/1/3 217/1/3
f 221/2/3 220/2/3 219/2/3
f 222/2/3 220/2/3 221/2/3
f 223/1/3 222/1/3 221/1/3
f 224/1/3 222/1/3 223/1/3
f 227/1/3 226/1/3 225/1/3
f 228/1/3 226/1/3 227/1/3
f 231/2/3 230/2/3 229/2/3
f 232/2/3 230/2/3 231/2/3
f 235/1/3 234/1/3 233/1/3
f 236/1/3 234/1/3 235/1/3
f 239/1/3 238/1/3 237/1/3
f 240/1/3 238/1/3 239/1/3
f 243/1/3 242/1/3 241/1/3
f 244/1/3 242/1/3 243/1/3
f 247/1/3 246/1/3 245/1/3
f 248/1/3 246/1/3 247/1/3
f 249/2/3 248/2/3 247/2/3
f 250/2/3 248/2/3 249/2/3
f 253/2/3 252/2/3 251/2/3
f 254/2/3 252/2/3 253/2/3
f 257/2/3 256/2/3 255/2/3
f 258/2/3 256/2/3 257/2/3
f 261/1/3 260/1/3 259/1/3
f 262/1/3 260/1/3 261/1/3
f 265/2/3 264/2/3 263/2/3
f 266/2/3 264/2/3 265/2/3
f 269/1/3 268/1/3 267/1/3
f 270/1/3 268/1/3 269/1/3
f 273/1/3 272/1/3 271/1/3
f 274/1/3 272/1/3 273/1/3
f 275/2/3 274/2/3 273/2/3
f 276/2/3 274/2/3 275/2/3
f 279/2/3 278/2/3 277/2/3
f 280/2/3 278/2/3 279/2/3
f 281/1/4 282/1/4 283/1/4
f 283/1/4 282/1/4 284/1/4
f 285/2/4 286/2/4 287/2/4
f 287/2/4 286/2/4 288/2/4
f 287/1/4 288/1/4 289/1/4
f 289/1/4 288/1/4 290/1/4
f 291/1/4 292/1/4 293/1/4
f 293/1/4 292/1/4 294/1/4
f 295/2/4 296/2/4 297/2/4
f 297/2/4 296/2/4 298/2/4
f 299/2/4 300/2/4 301/2/4
f 301/2/4 300/2/4 302/2/4
f 303/2/4 304/2/4 305/2/4
f 305/2/4 304/2/4 306/2/4
f 305/1/4 306/1/4 307/1/4
f 307/1/4 306/1/4 308/1/4
f 309/1/4 310/1/4 311/1/4
f 311/1/4 310/1/4 312/1/4
f 313/1/4 314/1/4 315/1/4
f 315/1/4 314/1/4 316/1/4
f 317/2/4 318/2/4 319/2/4
f 319/2/4 318/2/4 320/2/4
f 321/1/4 322/1/4 323/1/4
f 323/1/4 322/1/4 324/1/4
f 325/1/4 326/1/4 327/1/4
f 327/1/4 326/1/4 328/1/4
f 327/2/4 328/2/4 329/2/4
f 329/2/4 328/2/4 330/2/4
f 331/2/4 332/2/4 333/2/4
f 333/2/4 332/2/4 334/2/4
f 335/1/4 336/1/4 337/1/4
f 337/1/4 336/1/4 338/1/4
f 339/2/4 340/2/4 341/2/4
f 341/2/4 340/2/4 342/2/4
f 343/1/4 344/1/4 345/1/4
f 345/1/4 344/1/4 346/1/4
f 347/1/4 348/1/4 349/1/4
f 349/1/4 348/1/4 350/1/4
f 351/2/4 352/2/4 353/2/4
f 353/2/4 352/2/4 354/2/4
f 355/2/4 356/2/4 357/2/4
f 357/2/4 356/2/4 358/2/4
f 359/1/4 360/1/4 361/1/4
f 361/1/4 360/1/4 362/1/4
f 363/1/4 364/1/4 365/1/4
f 365/1/4 364/1/4 366/1/4
f 365/2/4 366/2/4 367/2/4
f 367/2/4 366/2/4 368/2/4
f 369/2/4 370/2/4 371/2/4
f 371/2/4 370/2/4 372/2/4
f 377/2/5 374/2/5 373/2/5
f 378/1/5 375/1/5 374/1/5
f 381/2/5 377/2/5 376/2/5
f 382/1/5 379/1/5 378/1/5
f 385/2/5 381/2/5 380/2/5
f 386/1/5 383/1/5 382/1/5
f 386/1/5 382/1/5 378/1/5
f 387/1/5 383/1/5 386/1/5
f 388/1/5 383/1/5 387/1/5
f 391/2/5 385/2/5 384/2/5
f 392/2/5 381/2/5 385/2/5
f 392/2/5 385/2/5 391/2/5
f 393/2/5 374/2/5 377/2/5
f 393/2/5 381/2/5 392/2/5
f 393/1/5 378/1/5 374/1/5
f 393/2/5 377/2/5 381/2/5
f 393/1/5 386/1/5 378/1/5
f 394/1/5 386/1/5 393/1/5
f 395/1/5 388/1/5 387/1/5
f 395/1/5 389/1/5 388/1/5
f 396/1/5 389/1/5 395/1/5
f 397/1/5 389/1/5 396/1/5
f 399/2/5 392/2/5 391/2/5
f 399/2/5 391/2/5 390/2/5
f 403/1/5 398/1/5 397/1/5
f 403/1/5 397/1/5 396/1/5
f 405/2/5 400/2/5 399/2/5
f 405/2/5 399/2/5 390/2/5
f 406/1/5 401/1/5 400/1/5
f 407/1/5 403/1/5 402/1/5
f 408/1/5 398/1/5 403/1/5
f 408/1/5 403/1/5 407/1/5
f 410/2/5 405/2/5 404/2/5
f 411/2/5 400/2/5 405/2/5
f 411/2/5 405/2/5 410/2/5
f 412/2/5 400/2/5 411/2/5
f 413/2/5 400/2/5 412/2/5
f 414/2/5 400/2/5 413/2/5
f 415/2/5 400/2/5 414/2/5
f 416/1/5 409/1/5 408/1/5
f 416/2/5 400/2/5 415/2/5
f 416/1/5 406/1/5 400/1/5
f 416/1/5 407/1/5 406/1/5
f 416/1/5 408/1/5 407/1/5
f 417/1/5 409/1/5 416/1/5
f 418/1/5 409/1/5 417/1/5
f 419/1/5 409/1/5 418/1/5
f 420/1/5 409/1/5 419/1/5
f 422/1/5 411/1/5 410/1/5
f 425/2/5 418/2/5 417/2/5
f 428/2/5 420/2/5 419/2/5
f 430/1/5 413/1/5 412/1/5
f 431/1/5 413/1/5 430/1/5
f 432/2/5 427/2/5 426/2/5
f 433/2/5 427/2/5 432/2/5
f 436/2/5 432/2/5 426/2/5
f 437/2/5 428/2/5 419/2/5
f 437/2/5 429/2/5 428/2/5
f 438/1/5 435/1/5 434/1/5
f 439/1/5 435/1/5 438/1/5
f 440/1/5 424/1/5 423/1/5
f 441/2/5 425/2/5 424/2/5
f 441/1/5 424/1/5 440/1/5
f 442/2/5 418/2/5 425/2/5
f 442/2/5 425/2/5 441/2/5
f 443/2/5 436/2/5 426/2/5
f 443/2/5 437/2/5 436/2/5
f 444/2/5 429/2/5 437/2/5
f 444/2/5 437/2/5 443/2/5
f 445/1/5 411/1/5 422/1/5
f 445/1/5 422/1/5 421/1/5
f 446/1/5 415/1/5 414/1/5
f 447/1/5 415/1/5 446/1/5
f 449/2/5 418/2/5 442/2/5
f 450/2/5 418/2/5 449/2/5
f 451/2/5 429/2/5 444/2/5
f 452/1/5 448/1/5 447/1/5
f 452/1/5 446/1/5 445/1/5
f 452/1/5 447/1/5 446/1/5
f 453/1/5 448/1/5 452/1/5
f 454/2/5 451/2/5 450/2/5
f 454/2/5 450/2/5 449/2/5
f 454/2/5 449/2/5 448/2/5
f 455/2/5 451/2/5 454/2/5
f 456/1/5 445/1/5 421/1/5
f 456/1/5 452/1/5 445/1/5
f 457/1/5 452/1/5 456/1/5
f 458/1/5 448/1/5 453/1/5
f 459/1/5 448/1/5 458/1/5
f 460/2/5 454/2/5 448/2/5
f 461/2/5 454/2/5 460/2/5
f 462/2/5 451/2/5 455/2/5
f 463/2/5 429/2/5 451/2/5
f 463/2/5 451/2/5 462/2/5
f 464/1/5 456/1/5 421/1/5
f 465/1/5 456/1/5 464/1/5
f 466/1/5 448/1/5 459/1/5
f 467/2/5 460/2/5 448/2/5
f 467/1/5 448/1/5 466/1/5
f 468/2/5 460/2/5 467/2/5
f 469/2/5 429/2/5 463/2/5
f 470/2/5 429/2/5 469/2/5
f 471/2/6 472/2/6 475/2/6
f 472/1/6 473/1/6 476/1/6
f 474/2/6 475/2/6 479/2/6
f 476/1/6 477/1/6 480/1/6
f 478/2/6 479/2/6 483/2/6
f 480/1/6 481/1/6 484/1/6
f 476/1/6 480/1/6 484/1/6
f 484/1/6 481/1/6 485/1/6
f 485/1/6 481/1/6 486/1/6
f 482/2/6 483/2/6 489/2/6
f 483/2/6 479/2/6 490/2/6
f 489/2/6 483/2/6 490/2/6
f 475/2/6 472/2/6 491/2/6
f 490/2/6 479/2/6 491/2/6
f 472/1/6 476/1/6 491/1/6
f 479/2/6 475/2/6 491/2/6
f 476/1/6 484/1/6 491/1/6
f 491/1/6 484/1/6 492/1/6
f 485/1/6 486/1/6 493/1/6
f 486/1/6 487/1/6 493/1/6
f 493/1/6 487/1/6 494/1/6
f 494/1/6 487/1/6 495/1/6
f 489/2/6 490/2/6 497/2/6
f 488/2/6 489/2/6 497/2/6
f 495/1/6 496/1/6 501/1/6
f 494/1/6 495/1/6 501/1/6
f 497/2/6 498/2/6 503/2/6
f 488/2/6 497/2/6 503/2/6
f 498/1/6 499/1/6 504/1/6
f 500/1/6 501/1/6 505/1/6
f 501/1/6 496/1/6 506/1/6
f 505/1/6 501/1/6 506/1/6
f 502/2/6 503/2/6 508/2/6
f 503/2/6 498/2/6 509/2/6
f 508/2/6 503/2/6 509/2/6
f 509/2/6 498/2/6 510/2/6
f 510/2/6 498/2/6 511/2/6
f 511/2/6 498/2/6 512/2/6
f 512/2/6 498/2/6 513/2/6
f 506/1/6 507/1/6 514/1/6
f 513/2/6 498/2/6 514/2/6
f 498/1/6 504/1/6 514/1/6
f 504/1/6 505/1/6 514/1/6
f 505/1/6 506/1/6 514/1/6
f 514/1/6 507/1/6 515/1/6
f 515/1/6 507/1/6 516/1/6
f 516/1/6 507/1/6 517/1/6
f 517/1/6 507/1/6 518/1/6
f 508/1/6 509/1/6 520/1/6
f 515/2/6 516/2/6 523/2/6
f 517/2/6 518/2/6 526/2/6
f 510/1/6 511/1/6 528/1/6
f 528/1/6 511/1/6 529/1/6
f 524/2/6 525/2/6 530/2/6
f 530/2/6 525/2/6 531/2/6
f 524/2/6 530/2/6 534/2/6
f 517/2/6 526/2/6 535/2/6
f 526/2/6 527/2/6 535/2/6
f 532/1/6 533/1/6 536/1/6
f 536/1/6 533/1/6 537/1/6
f 521/1/6 522/1/6 538/1/6
f 522/2/6 523/2/6 539/2/6
f 538/1/6 522/1/6 539/1/6
f 523/2/6 516/2/6 540/2/6
f 539/2/6 523/2/6 540/2/6
f 524/2/6 534/2/6 541/2/6
f 534/2/6 535/2/6 541/2/6
f 535/2/6 527/2/6 542/2/6
f 541/2/6 535/2/6 542/2/6
f 520/1/6 509/1/6 543/1/6
f 519/1/6 520/1/6 543/1/6
f 512/1/6 513/1/6 544/1/6
f 544/1/6 513/1/6 545/1/6
f 540/2/6 516/2/6 547/2/6
f 547/2/6 516/2/6 548/2/6
f 542/2/6 527/2/6 549/2/6
f 545/1/6 546/1/6 550/1/6
f 543/1/6 544/1/6 550/1/6
f 544/1/6 545/1/6 550/1/6
f 550/1/6 546/1/6 551/1/6
f 548/2/6 549/2/6 552/2/6
f 547/2/6 548/2/6 552/2/6
f 546/2/6 547/2/6 552/2/6
f 552/2/6 549/2/6 553/2/6
f 519/1/6 543/1/6 554/1/6
f 543/1/6 550/1/6 554/1/6
f 554/1/6 550/1/6 555/1/6
f 551/1/6 546/1/6 556/1/6
f 556/1/6 546/1/6 557/1/6
f 546/2/6 552/2/6 558/2/6
f 558/2/6 552/2/6 559/2/6
f 553/2/6 549/2/6 560/2/6
f 549/2/6 527/2/6 561/2/6
f 560/2/6 549/2/6 561/2/6
f 519/1/6 554/1/6 562/1/6
f 562/1/6 554/1/6 563/1/6
f 557/1/6 546/1/6 564/1/6
f 546/2/6 558/2/6 565/2/6
f 564/1/6 546/1/6 565/1/6
f 565/2/6 558/2/6 566/2/6
f 561/2/6 527/2/6 567/2/6
f 567/2/6 527/2/6 568/2/6
